<?xml version="1.0" encoding="utf-8"?>
<!-- Generator: Adobe Illustrator 17.0.0, SVG Export Plug-In . SVG Version: 6.00 Build 0)  -->
<!DOCTYPE svg PUBLIC "-//W3C//DTD SVG 1.1//EN" "http://www.w3.org/Graphics/SVG/1.1/DTD/svg11.dtd">
<svg version="1.1" id="Layer_1" xmlns="http://www.w3.org/2000/svg" xmlns:xlink="http://www.w3.org/1999/xlink" x="0px" y="0px"
	 width="70px" height="70px" viewBox="0 0 70 70" enable-background="new 0 0 70 70" xml:space="preserve">
<g>
	<path fill="#FA83BA" d="M15.752,19.019c-0.082-1.708-0.083-1.713,1.647-2.124c14.321-3.403,28.642-6.807,42.97-10.182
		c0.329-0.077,0.802-0.56,1.131,0.071c-1.04,4.181-3.216,7.687-6.317,10.645c-0.449-0.216-0.889-0.02-1.265,0.14
		c-2.929,1.242-5.945,2.231-8.974,3.19c-4.089,1.294-8.232,2.375-12.45,3.137c-2.613,0.472-5.218,1.049-7.892,1.105
		c-0.496-0.196-0.992-0.392-1.489-0.588c0.02-0.274-0.001-0.492-0.354-0.261c-1.293-0.455-2.407-1.312-3.655-1.793
		C17.423,21.711,16.49,20.511,15.752,19.019z"/>
	<path fill="#B6B6B6" d="M23.601,59.149c-0.17-0.235-0.34-0.47-0.51-0.705c0.058-0.272-0.064-0.418-0.328-0.463
		c-0.167-0.299-0.333-0.598-0.5-0.897c0.075-0.186,0.096-0.465,0.232-0.544c1.607-0.933,2.327-2.747,3.78-3.806
		c1.09-0.794,1.969-1.861,3.349-2.309c0.777-0.252,1.633-0.433,2.323-0.882c1.323-0.862,2.796-0.622,4.223-0.747
		c-0.234,0.532-0.293,1.098-0.328,1.669c-0.292,0.797-0.183,1.432,0.711,1.746c0.07,0.073,0.141,0.145,0.211,0.218
		c-0.038,0.281-0.003,0.472,0.345,0.283c1.631,0.63,2.749,0.425,3.714-0.68c1.023-1.172,1.082-2.529,0.187-4.274
		c0.168-0.102,0.324-0.259,0.506-0.299c2.111-0.47,4.003,0.205,5.827,1.166c1.368,0.721,2.481,1.86,3.946,2.424
		c-0.659,1.71-1.746,3.202-2.934,4.511c-2.978,3.28-6.344,6.134-10.359,8.127c-0.343,0.17-0.8,0.227-0.92,0.703
		c-0.324-0.027-0.611,0.032-0.784,0.346c-0.341-0.024-0.683-0.048-1.024-0.073c-0.11-0.334-0.268-0.233-0.435-0.047
		c-0.259-0.051-0.519-0.103-0.778-0.154c-0.243-0.336-0.507-0.479-0.829-0.092c-0.257-0.066-0.513-0.133-0.77-0.199
		c-0.136-0.298-0.333-0.36-0.601-0.159c-0.697-0.226-1.394-0.452-2.09-0.678c-0.192-0.444-0.529-0.523-0.955-0.38
		c-0.307-0.125-0.614-0.25-0.922-0.375c-0.039-0.492-0.331-0.543-0.725-0.415c-0.238-0.115-0.476-0.23-0.713-0.345
		c-0.035-0.216-0.073-0.426-0.368-0.236c-0.74-0.254-1.182-0.852-1.643-1.428c0.031-0.282-0.105-0.419-0.379-0.437
		c-0.052-0.011-0.085-0.042-0.098-0.094C24.032,59.322,23.904,59.169,23.601,59.149z M35.562,57.594
		c-0.533,1.663,0.267,3.414,1.77,3.873c1.507,0.46,3.141-0.519,3.658-2.193c0.504-1.63-0.271-3.33-1.735-3.807
		C37.753,54.978,36.094,55.933,35.562,57.594z"/>
	<path fill="#BC0437" d="M59.3,20.049c-1.001,1.519-2.386,2.693-3.662,3.95c-1.713,1.688-3.24,3.544-4.948,5.233
		c-2.385,2.358-4.681,4.825-7.729,6.369c-2.378,1.205-4.858,1.328-7.425,0.639c-5.008-1.345-9.665-3.57-14.383-5.645
		c-1.504-0.661-3.021-1.292-4.531-1.939c-0.209-0.09-0.468-0.111-0.559-0.377c2.359-0.715,4.811-0.576,7.224-0.803
		c1.786-0.168,3.62,0.159,5.356-0.52c1.196,0.416,2.392,0.831,3.588,1.247c0.561,0.726,1.274,0.985,2.162,0.701
		c0.579,0.165,1.158,0.329,1.737,0.494c0.23,0.386,0.487,0.532,0.81,0.091c0.607,0.254,1.246,0.127,1.872,0.164
		c0.191,0.368,0.31,0.186,0.422-0.055c1.763-0.023,3.301-0.723,4.784-1.587c1.916-1.117,3.39-2.792,5.156-4.099
		c0.546,0.173,1.074,0.051,1.563-0.17c1.588-0.719,3.17-1.454,4.74-2.212C56.715,20.932,57.901,20.219,59.3,20.049z"/>
	<path fill="#A1A1A1" d="M36.17,48.796c-1.427,0.125-2.9-0.115-4.223,0.747c-0.689,0.449-1.546,0.63-2.323,0.882
		c-1.38,0.448-2.259,1.515-3.349,2.309c-1.453,1.058-2.173,2.872-3.78,3.806c-0.137,0.079-0.158,0.358-0.232,0.544
		c-1.292-1.87-1.94-3.998-2.415-6.182c-0.153-0.705-0.463-1.409-0.273-2.164c0.745-0.103,1.213-0.552,1.584-1.18
		c1.428-2.414,3.713-3.751,6.27-4.513c1.538-0.459,3.232-0.382,4.85-0.592c1.234-0.161,2.453-0.196,3.67,0.102
		c0.275,0.516,0.55,1.033,0.824,1.549c-0.046,0.276-0.055,0.511,0.334,0.297c0.667,0.272,1.337,0.534,2.081,0.447
		c0.264,0.151,0.471,0.122,0.59-0.187c1.103-0.609,1.753-1.547,2.018-2.767c0.448,0.308,0.914,0.389,1.482,0.394
		c1.813,0.017,3.672-0.367,5.422,0.447c0.542,0.252,1.076,0.526,1.63,0.748c0.955,0.383,1.809,0.863,2.191,1.901
		c0.159,0.432,0.42,0.762,0.918,0.819c-0.62,1.658-1.218,3.326-2.149,4.846c-1.466-0.564-2.579-1.704-3.947-2.424
		c-1.824-0.961-3.716-1.637-5.827-1.166c-0.182,0.041-0.338,0.197-0.506,0.299C39.117,46.247,37.426,46.61,36.17,48.796z"/>
	<path fill="#B5FB63" d="M49.866,61.361c-0.171,0.177-0.342,0.355-0.512,0.532c-0.333-0.062-0.451,0.114-0.455,0.414
		c-0.567,0.683-1.237,1.25-1.955,1.766c-0.322-0.077-0.456,0.084-0.481,0.382c-2.341,2.155-5.011,3.815-7.948,4.992
		c-1.939,0.777-4.004,0.601-6.036,0.283c-0.02-0.159-0.054-0.116-0.093-0.007c-0.557-0.099-1.114-0.198-1.671-0.297
		c-0.838-0.603-1.905-0.608-2.8-1.124c-1.109-0.639-2.332-1.08-3.506-1.607c-0.101-0.082-0.201-0.164-0.302-0.246
		c0.021-0.121-0.041-0.127-0.131-0.094c-0.181-0.122-0.362-0.244-0.542-0.366l-0.008-0.015c-1.042-0.67-1.739-1.763-2.862-2.333
		c-1.648-2.119-3.329-4.226-4.176-6.825c-0.442-1.356-1.169-2.643-1.125-4.134c0.595,0.267,1.201,0.436,1.819,0.089
		c0.606-0.34,1.267-0.376,1.934-0.4c0,0,0.059,0.026,0.059,0.025c-0.24,0.805,0.092,1.427,0.637,1.979
		c0.06,0.152,0.121,0.304,0.181,0.455c0.114,1.196,0.623,2.195,1.499,3.013c0.182,0.308,0.364,0.616,0.546,0.923
		c-0.115,0.344,0.099,0.449,0.373,0.509c0.318,0.416,0.635,0.832,0.952,1.248c-0.06,0.28,0.067,0.385,0.336,0.355
		c0.034,0.058,0.068,0.117,0.103,0.175c-0.051,0.524,0.285,0.698,0.713,0.789c0.081,0.058,0.163,0.117,0.244,0.175
		c-0.07,0.3,0.132,0.388,0.349,0.517c2.315,1.381,4.806,2.349,7.392,3.051c0.793,0.215,1.656,0.492,2.516,0.153
		c0.142,0.016,0.283,0.031,0.425,0.047c0.436,0.469,0.922,0.408,1.429,0.137c0.285-0.092,0.572-0.152,0.869-0.051
		c0.216,0.369,0.331,0.177,0.436-0.078c0.937-0.469,1.874-0.938,2.811-1.407c0.269,0.09,0.434-0.009,0.505-0.279
		c0.206-0.3,0.5-0.463,0.848-0.541c0.289,0.075,0.442-0.05,0.488-0.332c0.545-0.48,1.121-0.916,1.76-1.264
		c0.31,0.069,0.44-0.088,0.47-0.373c0.926-0.793,1.851-1.586,2.777-2.38c0.334,0.065,0.457-0.107,0.462-0.411
		c0.175-0.178,0.351-0.356,0.526-0.533c0.32,0.051,0.425-0.13,0.439-0.408c0.17-0.185,0.341-0.37,0.511-0.554
		c0.33,0.048,0.434-0.136,0.436-0.425c0.056-0.077,0.112-0.154,0.168-0.23c0.54-0.013,0.723-0.328,0.696-0.821
		c0.15-0.238,0.3-0.475,0.451-0.712c0.555,0.042,0.587-0.266,0.457-0.683c0.066-0.122,0.132-0.244,0.199-0.366
		c0.902-0.594,1.275-1.482,1.394-2.511c0.108-0.249,0.216-0.498,0.323-0.747c0.361,0.02,0.584-0.237,0.67-0.5
		c0.2-0.609,0.535-0.532,1.066-0.453c1.109,0.164,1.256,0.949,1.393,1.798c-0.178,0.356-0.356,0.712-0.534,1.068
		c-0.39-0.016-0.505,0.154-0.347,0.511c-0.064,0.124-0.128,0.249-0.192,0.373c-0.435,0.216-0.849,0.446-0.671,1.053
		c-0.067,0.121-0.134,0.241-0.201,0.362c-1.006,0.835-1.719,1.885-2.251,3.068c-0.063,0.224-0.171,0.415-0.383,0.531
		c-0.573,0.04-0.696,0.488-0.832,0.922c-0.054,0.08-0.108,0.161-0.162,0.241c-0.599-0.001-0.704,0.474-0.864,0.897
		c-0.061,0.08-0.123,0.161-0.184,0.241C49.957,60.876,49.856,61.063,49.866,61.361z"/>
	<path fill="#5A5A5A" d="M19.381,35.348c-0.214-1.324-0.07-2.654-0.025-3.979c0.02-0.585,0.465-0.352,0.747-0.226
		c1.894,0.848,3.751,1.788,5.675,2.561c4.035,1.62,7.969,3.586,12.431,3.851c2.983,0.177,5.499-0.933,7.788-2.72
		c3.077-2.402,5.683-5.295,8.4-8.071c0.207-0.211,0.327-0.528,0.712-0.437c0.392,0.405,0.067,0.975,0.327,1.411
		c-0.039,0.129-0.077,0.257-0.116,0.386c-0.283,0.069-0.319,0.294-0.336,0.531c-3.598,3.695-6.989,7.612-11.203,10.652
		c-0.617,0.446-1.282,1.004-2.175,0.86c-0.779-1.044-1.709-1.86-3.12-1.555c-1.474,0.318-2.39,1.259-2.672,2.77
		c-2.845-0.413-5.487-1.515-8.144-2.511C24.862,37.817,22.141,36.532,19.381,35.348z"/>
	<path fill="#DDF3D8" d="M13.705,39.411c0.05-1.603,0.131-3.205,0.144-4.808c0.03-3.89,0.027-7.781,0.038-11.672
		c0.005-1.944-0.002-3.888,0.027-5.832c0.006-0.411-0.123-0.713-0.402-0.98c-1.499-1.44-2.999-2.881-4.498-4.321
		c-0.037-0.308-0.074-0.616-0.111-0.923c0.151-0.139,0.295-0.294,0.534-0.222c1.53,1.501,3.077,2.984,4.577,4.513
		c0.422,0.43,0.8,0.453,1.341,0.321c2.864-0.699,5.745-1.335,8.607-2.042c2.111-0.521,4.275-0.84,6.321-1.614
		c2.957-0.546,5.892-1.185,8.766-2.079c1.823-0.139,3.514-0.88,5.313-1.154c0.762-0.116,1.559-0.22,2.271-0.588
		c4.513-0.94,8.996-2.013,13.466-3.138c0.257,0.121,0.7,0.063,0.688,0.461c-0.014,0.472-0.51,0.373-0.791,0.44
		c-10.743,2.56-21.49,5.102-32.237,7.644c-3.952,0.935-7.903,1.873-11.861,2.785c-0.675,0.155-1.123,0.452-1.126,1.179
		c-0.012,3.617-0.011,7.233-0.01,10.85c0,0.165,0.053,0.33,0.082,0.496c-0.068,0.279-0.252,0.556-0.018,0.842
		c0.024,0.665,0.049,1.331,0.073,1.996c-0.295,0.661,0.036,1.357-0.111,2.026c-0.136,0.401-0.174,0.799,0.035,1.189
		c-0.004,0.879-0.008,1.758-0.012,2.637c-0.111,0.147-0.135,0.295-0.002,0.443c-0.006,1.399-0.012,2.799-0.018,4.198
		c-0.189,0.2-0.13,0.391,0.02,0.58c-0.02,1.03-0.045,2.059-0.058,3.089c-0.031,2.332,0.012,4.659,0.511,6.953
		c-0.044,1.491,0.682,2.778,1.125,4.134c0.847,2.599,2.528,4.706,4.175,6.825c-0.072,0.101-0.144,0.203-0.216,0.304
		c-1.249-0.749-1.851-2.106-2.875-3.066c-0.14-0.264-0.263-0.539-0.421-0.791c-1.132-1.805-1.969-3.756-2.515-5.794
		c-0.801-2.991-0.854-6.072-0.793-9.157C13.782,43.229,13.872,41.318,13.705,39.411z"/>
	<path fill="#8E8E8E" d="M19.381,35.348c2.76,1.184,5.481,2.469,8.29,3.522c2.657,0.996,5.3,2.098,8.144,2.511
		c0.233,0.369,0.237,0.764,0.133,1.172c-1.216-0.297-2.435-0.262-3.669-0.102c-1.618,0.211-3.312,0.134-4.85,0.592
		c-2.557,0.762-4.842,2.099-6.27,4.513c-0.371,0.628-0.839,1.077-1.584,1.18c-0.428-0.951-0.345-1.982-0.334-2.963
		C19.281,42.299,19.148,38.821,19.381,35.348z"/>
	<path fill="#E71D6A" d="M59.3,20.049c-1.399,0.17-2.586,0.883-3.821,1.479c-1.57,0.758-3.152,1.493-4.74,2.212
		c-0.489,0.221-1.017,0.343-1.563,0.171c0.145-0.433,0.509-0.691,0.809-0.997c1.762-1.8,3.563-3.563,5.197-5.484
		c3.101-2.958,5.278-6.464,6.317-10.645c0.148,2.635-0.059,5.266-0.077,7.9c-0.005,0.803-0.103,1.606-0.104,2.409
		c-0.001,0.602-0.21,1.089-0.602,1.52c-0.479,0.006-0.696,0.287-0.764,0.725C59.79,19.626,59.625,19.911,59.3,20.049z"/>
	<path fill="#92F352" d="M56.921,51.661c-0.137-0.849-0.283-1.635-1.393-1.798c-0.531-0.078-0.866-0.155-1.066,0.453
		c-0.086,0.263-0.308,0.519-0.67,0.5c0.643-1.764,1.297-3.525,1.926-5.294c0.735-2.067,1.042-4.233,1.441-6.376
		c0.358-0.172,0.373-0.378,0.058-0.614c0.018-0.135,0.037-0.27,0.055-0.405c0.373-0.177,0.401-0.384,0.053-0.623
		c0.019-0.443,0.038-0.886,0.058-1.328c0.233-0.381,0.488-0.701,1.017-0.641c0.426,0.049,0.869,0.102,1.288,0.038
		c0.635-0.096,0.772,0.12,0.817,0.738c0.071,0.978-0.294,1.971,0.099,2.932c-0.025,0.087-0.05,0.173-0.075,0.259
		c-0.058-0.009-0.115-0.018-0.172-0.027c0.056,0.012,0.111,0.024,0.167,0.036c0,0,0.019,0.054,0.018,0.054
		c-0.216,0.162-0.238,0.331-0.021,0.51c-0.067,0.884-0.14,1.767-0.41,2.619c-0.4,0.339-0.554,1.097-0.362,1.784
		c-0.414,1.644-0.906,3.261-1.639,4.795c-0.337,0.054-0.419,0.225-0.238,0.518C57.614,50.444,57.397,51.119,56.921,51.661z"/>
	<path fill="#52DA2C" d="M60.605,39.243c-0.394-0.962-0.028-1.954-0.099-2.932c-0.045-0.618-0.182-0.834-0.817-0.738
		c-0.418,0.064-0.861,0.011-1.288-0.038c-0.529-0.06-0.784,0.259-1.017,0.641c-0.234-1.294-0.072-2.599-0.085-3.897
		c-0.025-2.648,0.026-5.297,0.035-7.946c0.001-0.348,0.025-0.707,0.251-0.955c1.032-1.136,2.093-2.246,3.361-3.597
		c-0.001,1.778,0.009,3.259-0.005,4.739c-0.04,4.456-0.088,8.912-0.139,13.367C60.798,38.344,60.871,38.82,60.605,39.243z"/>
	<path fill="#E71D6A" d="M28.645,26.955c-1.736,0.679-3.57,0.352-5.356,0.52c-2.413,0.227-4.865,0.088-7.224,0.803
		c-0.285-0.119-0.392-0.346-0.392-0.64c0.001-2.776,0.001-5.551,0.006-8.327c0-0.097,0.047-0.195,0.073-0.292
		c0.738,1.492,1.671,2.692,3.352,3.34c1.248,0.481,2.362,1.338,3.655,1.793c0.049,0.181,0.181,0.248,0.354,0.262
		c0.496,0.196,0.992,0.392,1.489,0.588c0.926,0.658,1.988,1.014,3.045,1.389C28.004,26.518,28.461,26.508,28.645,26.955z"/>
	<g>
		<path fill="#92F352" d="M55.005,0.21c-0.3-0.312-0.729-0.212-1.142-0.112C50.445,0.922,47.015,1.7,43.602,2.545
			c-2.007,0.497-4.067,0.788-6.013,1.523c-1.281,0.059-2.49,0.481-3.72,0.776c-1.715,0.411-3.477,0.636-5.135,1.274
			c-2.21,0.489-4.448,0.859-6.614,1.535c-1.406,0.301-2.823,0.561-4.216,0.912c-2.819,0.711-5.689,1.215-8.468,2.088
			c1.53,1.501,3.077,2.984,4.577,4.513c0.422,0.43,0.8,0.453,1.341,0.321c2.865-0.699,5.745-1.335,8.607-2.042
			c2.111-0.521,4.275-0.84,6.321-1.614c0.007-0.39-0.199-0.577-0.474-0.69c0.275,0.112,0.481,0.3,0.474,0.689
			c2.957-0.546,5.892-1.185,8.766-2.079c1.823-0.138,3.514-0.88,5.313-1.154c0.762-0.116,1.559-0.22,2.271-0.588
			c4.513-0.94,8.996-2.013,13.466-3.138C58.55,3.157,56.606,1.872,55.005,0.21z"/>
		<path fill="#92F352" d="M14.537,54.292c-0.801-2.991-0.854-6.072-0.793-9.157c0.037-1.907,0.128-3.818-0.039-5.724
			c0.05-1.603,0.131-3.205,0.144-4.808c0.03-3.89,0.027-7.781,0.038-11.672c0.005-1.944-0.002-3.888,0.027-5.832
			c0.006-0.411-0.123-0.713-0.402-0.98c-1.499-1.44-2.999-2.881-4.498-4.321c-0.401,0.778,0.22,1.671-0.274,2.439
			c-0.02,0.172-0.039,0.343-0.059,0.515c0.211,0.127,0.398,0.257,0.059,0.454c-0.02,0.128-0.039,0.256-0.059,0.384
			c0.221,0.167,0.226,0.356,0.058,0.564c-0.032,0.236-0.063,0.472-0.094,0.707c0.337,0.354,0.381,0.717,0.032,1.091
			c-0.011,0.275-0.022,0.55-0.033,0.825c0.412,0.881,0.28,1.774,0.061,2.669c-0.028,0.265-0.078,0.529-0.08,0.794
			C8.6,25.832,8.584,29.424,8.566,33.016c0.272,0.139,0.315,0.33,0.129,0.573c-0.037,0.235-0.073,0.47-0.11,0.705
			c0.407,0.368,0.267,0.789,0.115,1.211C8.666,35.677,8.633,35.848,8.6,36.02l0,0c-0.201,0.412-0.13,0.86-0.137,1.287
			c-0.026,1.666-0.013,3.333-0.008,4.999c0.017,5.74,1.394,11.028,5.322,15.397c1.082,1.203,2.144,2.491,3.696,3.175
			c-0.14-0.264-0.263-0.539-0.421-0.791C15.92,58.282,15.083,56.331,14.537,54.292z"/>
	</g>
	<path fill="#DDF3D8" d="M55.321,28.124c0.039-0.129,0.077-0.257,0.116-0.386c0.47-0.437,0.597,0.014,0.787,0.303
		c-0.002,1.191-0.004,2.382-0.006,3.572c-0.343,0.346-0.249,0.714-0.056,1.088c0.015,0.914,0.03,1.828,0.046,2.742
		c-0.284,0.132-0.201,0.29-0.033,0.454c-0.021,0.788,0.078,1.581-0.093,2.363c-0.222,0.237-0.349,0.483-0.076,0.769
		c-0.015,0.125-0.03,0.25-0.044,0.374c-0.301,0.181-0.333,0.396-0.083,0.647c-0.016,0.124-0.033,0.249-0.049,0.374
		c-0.257,0.103-0.208,0.25-0.059,0.412c-0.025,0.163-0.049,0.327-0.074,0.49c-0.264,0.346-0.504,0.698-0.214,1.147
		c-0.074,0.318-0.148,0.636-0.222,0.954c-0.428,0.732-0.826,1.472-0.653,2.369c-0.053,0.171-0.105,0.343-0.158,0.514
		c-0.761,0.654-0.828,1.58-0.969,2.477c-0.127,0.301-0.254,0.601-0.381,0.902c-0.514,0.177-0.513,0.612-0.523,1.042
		c-0.219,0.446-0.439,0.892-0.658,1.338c-0.364,0.025-0.473,0.214-0.353,0.55c-0.091,0.17-0.182,0.34-0.273,0.51
		c-0.273,0.051-0.372,0.212-0.302,0.479c-0.191,0.311-0.381,0.623-0.572,0.934c-0.295,0.019-0.378,0.193-0.336,0.459
		c-2.961,3.518-6.385,6.475-10.478,8.613c-0.693,0.362-1.305,0.918-2.147,0.946c-0.127-0.057-0.253-0.114-0.38-0.172
		c0.12-0.476,0.577-0.533,0.92-0.703c4.015-1.993,7.382-4.847,10.359-8.127c1.188-1.308,2.275-2.8,2.934-4.511
		c0.931-1.52,1.529-3.188,2.149-4.845c0.62-1.284,0.855-2.677,1.144-4.054c0.136-0.433,0.593-0.829,0.152-1.328
		c0.362-1.23,0.516-2.49,0.528-3.768c0.022-2.407,0.028-4.815,0.04-7.223c0.088-0.148,0.099-0.297-0.001-0.444
		c-0.001-0.154-0.002-0.309-0.003-0.463C55.306,28.657,55.462,28.395,55.321,28.124z"/>
	<path fill="#92F352" d="M15.264,52.681c-0.499-2.293-0.541-4.621-0.511-6.953c0.014-1.03,0.039-2.059,0.059-3.089
		c0.07-0.129,0.139-0.258,0.207-0.387c0.431,0.021,0.828-0.089,1.239-0.223c0.606-0.198,1.211-0.533,1.889-0.267
		c0.034,0.422,0.186,0.844,0.005,1.267c-0.356,0.219-0.365,0.432,0.01,0.64c0.001,0.105,0.001,0.21,0.002,0.316
		c-0.209,0.281-0.243,0.599-0.252,0.942c-0.044,1.789,0.204,3.561,0.404,5.327c0.052,0.463,0.032,1.149,0.599,1.491
		c0.087,0.2,0.207,0.394,0.101,0.625c-0.667,0.024-1.328,0.061-1.933,0.4C16.465,53.117,15.859,52.948,15.264,52.681z"/>
	<path fill="#52DA2C" d="M18.147,41.762c-0.678-0.266-1.283,0.068-1.889,0.267c-0.41,0.134-0.808,0.244-1.238,0.223
		c-0.076-0.064-0.152-0.128-0.228-0.192c0.006-1.399,0.012-2.799,0.018-4.198c0.338-0.146,0.205-0.294,0.002-0.443
		c0.004-0.879,0.008-1.758,0.012-2.637c0.232-0.404,0.289-0.803-0.036-1.189c0.147-0.669-0.184-1.365,0.111-2.026
		c0.497,0.102,0.988,0.109,1.44-0.155c0.622-0.364,1.248-0.368,1.89-0.068c-0.009,0.104-0.019,0.209-0.029,0.314
		c-0.24,0.677-0.338,1.352,0.025,2.022C18.268,36.374,18.422,39.07,18.147,41.762z"/>
	<path fill="#06CB06" d="M18.23,31.344c-0.641-0.3-1.268-0.296-1.89,0.068c-0.452,0.264-0.943,0.257-1.44,0.155
		c-0.025-0.665-0.049-1.331-0.074-1.996c0.383-0.147,0.034-0.507,0.208-0.714c0.928,0.421,1.849,0.859,2.787,1.258
		C18.451,30.382,18.385,30.837,18.23,31.344z"/>
	<path fill="#92F352" d="M34.915,65.74c-0.86,0.339-1.723,0.062-2.516-0.153c-2.586-0.702-5.077-1.67-7.392-3.051
		c-0.217-0.129-0.419-0.218-0.349-0.517c2.157,1.086,4.316,2.153,6.643,2.858C32.494,65.237,33.735,65.353,34.915,65.74z"/>
	<path fill="#52DA2C" d="M18.915,51.746c-0.568-0.342-0.547-1.028-0.599-1.491c-0.2-1.766-0.447-3.538-0.404-5.327
		c0.008-0.343,0.042-0.661,0.252-0.942c0.224,1.653,0.116,3.328,0.348,4.987C18.641,49.896,18.989,50.793,18.915,51.746z"/>
	<path fill="#A1A1A1" d="M56.223,28.041c-0.19-0.289-0.317-0.741-0.787-0.303c-0.26-0.435,0.065-1.006-0.327-1.411
		c0.236-0.529,0.36-1.15,1.174-1.34C56.201,26.038,56.441,27.036,56.223,28.041z"/>
	<path fill="#A1A1A1" d="M24.409,66.695c1.174,0.527,2.397,0.968,3.506,1.607c0.895,0.516,1.963,0.521,2.8,1.124
		c-2.302-0.415-4.441-1.248-6.42-2.494C24.333,66.854,24.371,66.775,24.409,66.695z"/>
	<path fill="#B6B6B6" d="M24.409,66.695c-0.038,0.079-0.076,0.158-0.114,0.237c-0.298-0.168-0.596-0.335-0.894-0.503
		c-0.061-0.2-0.216-0.26-0.404-0.274c-0.99-0.608-1.95-1.253-2.649-2.211c0.072-0.102,0.143-0.203,0.216-0.304
		c1.124,0.571,1.821,1.664,2.862,2.334c0,0,0.008,0.016,0.008,0.016c0.181,0.122,0.362,0.244,0.541,0.365
		c-0.001-0.001,0.048,0.068,0.048,0.068l0.084,0.027C24.208,66.531,24.308,66.613,24.409,66.695z"/>
	<path fill="#52DA2C" d="M21.393,57.843c-0.876-0.817-1.385-1.817-1.499-3.013C20.524,55.77,21.007,56.782,21.393,57.843z"/>
	<path fill="#92F352" d="M52.724,58.096c0.532-1.183,1.245-2.233,2.251-3.068C54.38,56.165,53.647,57.2,52.724,58.096z"/>
	<path fill="#92F352" d="M53.469,51.563c-0.119,1.029-0.492,1.917-1.394,2.511C52.463,53.194,52.865,52.323,53.469,51.563z"/>
	<path fill="#A1A1A1" d="M53.481,48.788c0.141-0.897,0.208-1.823,0.969-2.477C54.282,47.197,54.049,48.058,53.481,48.788z"/>
	<path fill="#039503" d="M8.902,10.875c0.037,0.308,0.074,0.616,0.111,0.923c-0.402,0.778,0.22,1.671-0.275,2.439
		C8.554,13.105,8.351,11.972,8.902,10.875z"/>
	<path fill="#A1A1A1" d="M54.608,45.797c-0.173-0.897,0.225-1.637,0.653-2.369C55.32,44.294,54.995,45.054,54.608,45.797z"/>
	<path fill="#039503" d="M8.642,18.777c0.412,0.881,0.28,1.774,0.061,2.669C8.293,20.565,8.586,19.669,8.642,18.777z"/>
	<path fill="#52DA2C" d="M19.713,54.375c-0.546-0.553-0.877-1.174-0.637-1.979C19.427,53.011,19.672,53.66,19.713,54.375z"/>
	<path fill="#52DA2C" d="M59.751,44.479c-0.192-0.688-0.039-1.445,0.362-1.784C60.199,43.331,60.018,43.914,59.751,44.479z"/>
	<path fill="#06CB06" d="M18.227,33.679c-0.364-0.669-0.265-1.344-0.025-2.022C18.5,32.328,18.33,33.004,18.227,33.679z"/>
	<path fill="#92F352" d="M36.769,65.923c-0.507,0.271-0.993,0.333-1.429-0.137C35.827,65.719,36.313,65.661,36.769,65.923z"/>
	<path fill="#92F352" d="M55.176,54.667c-0.178-0.607,0.236-0.837,0.671-1.053C55.754,54.048,55.544,54.407,55.176,54.667z"/>
	<path fill="#8E8E8E" d="M37.077,64.389c0.127,0.057,0.253,0.114,0.38,0.172c-0.345,0.349-0.742,0.344-1.164,0.175
		C36.467,64.421,36.753,64.362,37.077,64.389z"/>
	<path fill="#A1A1A1" d="M52.577,50.732c0.01-0.43,0.009-0.865,0.523-1.042C53.047,50.098,52.983,50.501,52.577,50.732z"/>
	<path fill="#A1A1A1" d="M55.483,42.474c-0.289-0.45-0.05-0.801,0.214-1.147C55.84,41.749,55.718,42.122,55.483,42.474z"/>
	<path fill="#8E8E8E" d="M28.811,62.953c0.426-0.143,0.763-0.065,0.955,0.38C29.393,63.343,29.063,63.247,28.811,62.953z"/>
	<path fill="#A1A1A1" d="M56.162,32.701c-0.194-0.373-0.287-0.742,0.056-1.088C56.384,31.986,56.347,32.347,56.162,32.701z"/>
	<path fill="#92F352" d="M50.482,60.687c0.16-0.423,0.265-0.898,0.864-0.897C51.133,60.161,50.901,60.514,50.482,60.687z"/>
	<path fill="#039503" d="M8.585,34.294c0.407,0.368,0.267,0.789,0.115,1.211C8.372,35.129,8.488,34.71,8.585,34.294z"/>
	<path fill="#92F352" d="M50.969,55.836c0.027,0.494-0.156,0.808-0.696,0.821C50.453,56.339,50.643,56.03,50.969,55.836z"/>
	<path fill="#92F352" d="M51.508,59.549c0.137-0.434,0.259-0.882,0.832-0.922C52.14,59.004,51.922,59.365,51.508,59.549z"/>
	<path fill="#039503" d="M8.643,16.862c0.337,0.354,0.381,0.717,0.032,1.091C8.503,17.593,8.545,17.228,8.643,16.862z"/>
	<path fill="#92F352" d="M24.415,61.843c-0.428-0.092-0.764-0.266-0.713-0.789C24.022,61.242,24.294,61.474,24.415,61.843z"/>
	<path fill="#BC0437" d="M59.953,19.34c0.068-0.439,0.285-0.72,0.764-0.725C60.577,18.976,60.341,19.238,59.953,19.34z"/>
	<path fill="#92F352" d="M51.877,54.44c0.13,0.417,0.098,0.725-0.457,0.683C51.47,54.828,51.582,54.573,51.877,54.44z"/>
	<path fill="#8E8E8E" d="M27.165,62.164c0.394-0.129,0.685-0.077,0.725,0.415C27.573,62.572,27.3,62.488,27.165,62.164z"/>
	<path fill="#8E8E8E" d="M33.226,64.37c0.323-0.387,0.587-0.244,0.829,0.092C33.757,64.636,33.49,64.521,33.226,64.37z"/>
	<path fill="#92F352" d="M56.039,53.24c-0.158-0.356-0.043-0.527,0.347-0.511C56.367,52.965,56.29,53.162,56.039,53.24z"/>
	<path fill="#52DA2C" d="M57.874,49.792c-0.181-0.292-0.099-0.464,0.238-0.518C58.146,49.499,58.106,49.689,57.874,49.792z"/>
	<path fill="#52DA2C" d="M57.327,37.503c0.348,0.239,0.32,0.446-0.053,0.623C57.115,37.904,57.182,37.7,57.327,37.503z"/>
	<path fill="#92F352" d="M15.034,28.856c-0.174,0.208,0.175,0.567-0.208,0.714c-0.234-0.286-0.05-0.563,0.018-0.842
		C14.908,28.771,14.971,28.813,15.034,28.856z"/>
	<path fill="#52DA2C" d="M18.162,43.669c-0.374-0.208-0.366-0.421-0.01-0.64C18.335,43.24,18.273,43.454,18.162,43.669z"/>
	<path fill="#A1A1A1" d="M51.566,52.62c-0.12-0.336-0.011-0.525,0.353-0.55C51.932,52.337,51.813,52.52,51.566,52.62z"/>
	<path fill="#A1A1A1" d="M55.879,40.051c-0.25-0.251-0.218-0.467,0.083-0.647C56.114,39.643,56.066,39.856,55.879,40.051z"/>
	<path fill="#A1A1A1" d="M56.007,39.029c-0.273-0.286-0.146-0.532,0.076-0.769C56.224,38.533,56.21,38.791,56.007,39.029z"/>
	<path fill="#8E8E8E" d="M31.856,64.012c0.267-0.201,0.465-0.139,0.601,0.159C32.21,64.294,32.02,64.201,31.856,64.012z"/>
	<path fill="#52DA2C" d="M57.218,38.532c0.315,0.236,0.299,0.442-0.058,0.614C56.987,38.923,57.068,38.724,57.218,38.532z"/>
	<path fill="#52DA2C" d="M22.311,59.275c-0.274-0.061-0.487-0.165-0.373-0.509C22.191,58.843,22.336,58.997,22.311,59.275z"/>
	<path fill="#92F352" d="M50.106,56.888C50.104,57.177,50,57.36,49.67,57.312C49.713,57.066,49.875,56.942,50.106,56.888z"/>
	<path fill="#92F352" d="M49.159,57.867c-0.014,0.278-0.119,0.459-0.439,0.408C48.774,58.039,48.952,57.938,49.159,57.867z"/>
	<path fill="#039503" d="M8.68,15.59c0.221,0.167,0.226,0.356,0.058,0.564C8.572,15.981,8.502,15.798,8.68,15.59z"/>
	<path fill="#039503" d="M8.68,14.752c0.211,0.127,0.398,0.257,0.059,0.454C8.61,15.069,8.592,14.918,8.68,14.752z"/>
	<path fill="#92F352" d="M48.194,58.808c-0.006,0.304-0.128,0.477-0.462,0.411C47.793,58.978,47.982,58.88,48.194,58.808z"/>
	<path fill="#92F352" d="M48.899,62.307c0.004-0.3,0.122-0.476,0.455-0.414C49.295,62.133,49.111,62.236,48.899,62.307z"/>
	<path fill="#039503" d="M8.566,33.016c0.272,0.139,0.315,0.33,0.129,0.573C8.529,33.426,8.438,33.245,8.566,33.016z"/>
	<path fill="#92F352" d="M44.954,61.599c-0.029,0.285-0.16,0.442-0.47,0.373C44.554,61.737,44.741,61.651,44.954,61.599z"/>
	<path fill="#92F352" d="M46.463,64.455c0.026-0.297,0.159-0.458,0.481-0.382C46.86,64.297,46.676,64.394,46.463,64.455z"/>
	<path fill="#8E8E8E" d="M22.763,57.981c0.264,0.045,0.385,0.191,0.328,0.463C22.841,58.389,22.745,58.225,22.763,57.981z"/>
	<path fill="#92F352" d="M41.389,64.109c-0.071,0.27-0.235,0.369-0.505,0.279C40.988,64.177,41.16,64.091,41.389,64.109z"/>
	<path fill="#8E8E8E" d="M23.601,59.149c0.303,0.02,0.431,0.173,0.362,0.476C23.718,59.56,23.643,59.367,23.601,59.149z"/>
	<path fill="#8E8E8E" d="M24.061,59.718c0.274,0.017,0.41,0.155,0.379,0.437C24.179,60.126,24.082,59.955,24.061,59.718z"/>
	<path fill="#92F352" d="M42.724,63.236c-0.046,0.282-0.199,0.407-0.488,0.332C42.324,63.347,42.495,63.248,42.724,63.236z"/>
	<path fill="#52DA2C" d="M23.6,60.878c-0.269,0.03-0.396-0.074-0.336-0.355C23.474,60.549,23.572,60.68,23.6,60.878z"/>
	<path fill="#92F352" d="M49.866,61.361c-0.01-0.298,0.091-0.485,0.432-0.433C50.242,61.16,50.063,61.27,49.866,61.361z"/>
	<path fill="#8E8E8E" d="M34.834,64.616c0.167-0.186,0.324-0.287,0.435,0.047C35.111,64.761,34.968,64.729,34.834,64.616z"/>
	<path fill="#A1A1A1" d="M55.772,40.836c-0.149-0.161-0.198-0.308,0.059-0.412C55.965,40.584,55.951,40.722,55.772,40.836z"/>
	<path fill="#A1A1A1" d="M50.083,55.002c-0.042-0.265,0.041-0.44,0.336-0.459C50.446,54.798,50.304,54.929,50.083,55.002z"/>
	<path fill="#A1A1A1" d="M56.175,35.897c-0.168-0.164-0.252-0.322,0.033-0.454C56.325,35.603,56.335,35.756,56.175,35.897z"/>
	<path fill="#92F352" d="M38.073,65.794c-0.104,0.255-0.22,0.446-0.436,0.078C37.763,65.737,37.911,65.725,38.073,65.794z"/>
	<path fill="#A1A1A1" d="M50.99,53.609c-0.07-0.267,0.03-0.428,0.302-0.479C51.327,53.375,51.228,53.535,50.99,53.609z"/>
	<path fill="#52DA2C" d="M60.522,40.076c-0.217-0.179-0.195-0.348,0.021-0.51C60.705,39.743,60.706,39.913,60.522,40.076z"/>
	<path fill="#8E8E8E" d="M26.083,61.582c0.295-0.19,0.333,0.021,0.368,0.236C26.273,61.827,26.134,61.772,26.083,61.582z"/>
	<path fill="#A1A1A1" d="M22.997,66.155c0.187,0.014,0.343,0.074,0.404,0.274C23.215,66.413,23.074,66.331,22.997,66.155z"/>
	<path fill="#A1A1A1" d="M32.386,69.724c0.039-0.109,0.074-0.152,0.093,0.007c0,0-0.049,0.032-0.049,0.032L32.386,69.724z"/>
	<path fill="#52DA2C" d="M60.525,39.511c-0.056-0.012-0.111-0.024-0.167-0.036c0.057,0.009,0.115,0.018,0.172,0.027
		C60.53,39.502,60.525,39.511,60.525,39.511z"/>
	<path fill="#E7658E" d="M28.645,26.955c-0.184-0.447-0.641-0.437-0.998-0.564c-1.057-0.375-2.119-0.731-3.045-1.389
		c2.674-0.055,5.279-0.632,7.892-1.105c4.217-0.762,8.361-1.843,12.45-3.137c3.03-0.959,6.045-1.948,8.974-3.19
		c0.376-0.159,0.816-0.356,1.265-0.14c-1.634,1.921-3.436,3.684-5.197,5.484c-0.3,0.307-0.664,0.564-0.809,0.997
		c-1.766,1.306-3.24,2.981-5.156,4.098c-1.482,0.864-3.021,1.565-4.783,1.587c-0.151-0.06-0.295-0.067-0.422,0.055
		c-0.626-0.036-1.265,0.09-1.872-0.164c-0.263-0.092-0.516-0.277-0.81-0.09c-0.579-0.165-1.158-0.329-1.737-0.494
		c-0.694-0.316-1.408-0.572-2.163-0.701C31.037,27.786,29.841,27.371,28.645,26.955z"/>
	<path fill="#E7658E" d="M23.113,24.414c-0.173-0.013-0.305-0.081-0.354-0.262C23.112,23.922,23.133,24.14,23.113,24.414z"/>
	<path fill="#0B0D09" d="M35.562,57.594c0.532-1.661,2.191-2.616,3.693-2.127c1.464,0.476,2.239,2.177,1.735,3.807
		c-0.517,1.674-2.151,2.654-3.658,2.193C35.829,61.008,35.029,59.258,35.562,57.594z M39.892,59.377
		c0.142-0.102,0.187-0.242,0.167-0.41c0.244-0.573-0.026-1.073-0.225-1.583c-0.014-0.126,0.011-0.274-0.047-0.373
		c-0.377-0.639-0.931-0.806-1.627-0.58c-1.05,0.34-1.84,1.216-1.744,2.051c0.07,0.606,0.106,1.292,0.902,1.482
		C38.554,60.73,39.175,60.589,39.892,59.377z"/>
	<path fill="#0B0D09" d="M36.17,48.796c1.256-2.185,2.947-2.548,4.84-1.038c0.895,1.745,0.836,3.101-0.187,4.274
		c-0.965,1.106-2.083,1.31-3.714,0.68c-0.042-0.183-0.164-0.269-0.345-0.283c-0.07-0.073-0.141-0.145-0.211-0.218
		c-0.237-0.582-0.474-1.164-0.711-1.747C35.877,49.894,35.936,49.327,36.17,48.796z M40.579,50.43
		c0.173-0.649-0.053-1.197-0.431-1.707c0.07-0.177,0.021-0.344-0.106-0.457c-0.469-0.415-1.022-0.493-1.587-0.269
		c-0.777,0.308-1.467,0.801-1.532,1.685c-0.045,0.602-0.15,1.383,0.728,1.644c1.193,1.02,2.041,0.882,2.754-0.449
		C40.463,50.727,40.521,50.579,40.579,50.43z"/>
	<path fill="#8E8E8E" d="M35.842,50.464c0.237,0.582,0.474,1.164,0.711,1.747C35.659,51.896,35.55,51.262,35.842,50.464z"/>
	<path fill="#8E8E8E" d="M36.764,52.429c0.181,0.014,0.303,0.1,0.345,0.283C36.761,52.901,36.726,52.71,36.764,52.429z"/>
	<path fill="#E71D6A" d="M32.233,28.202c0.755,0.128,1.468,0.385,2.163,0.701C33.507,29.187,32.795,28.928,32.233,28.202z"/>
	<path fill="#E71D6A" d="M36.133,29.397c0.294-0.187,0.547-0.002,0.81,0.09C36.62,29.929,36.363,29.783,36.133,29.397z"/>
	<path fill="#E71D6A" d="M38.815,29.652c0.127-0.122,0.271-0.114,0.422-0.055C39.125,29.837,39.005,30.02,38.815,29.652z"/>
	<path fill="#8E8E8E" d="M54.583,42.15c-0.289,1.377-0.524,2.77-1.144,4.054c-0.499-0.058-0.76-0.388-0.919-0.82
		c-0.382-1.039-1.236-1.518-2.191-1.901c-0.554-0.223-1.088-0.496-1.63-0.748c-1.75-0.814-3.609-0.429-5.422-0.447
		c-0.568-0.005-1.034-0.086-1.482-0.394c-0.063-0.575-0.126-1.151-0.189-1.726c0.893,0.145,1.557-0.414,2.175-0.86
		c4.213-3.041,7.605-6.957,11.202-10.653c0.105,0.089,0.21,0.179,0.315,0.269c0.001,0.154,0.002,0.309,0.003,0.463
		c-0.381,0.15-0.227,0.297,0.002,0.444c-0.013,2.408-0.019,4.815-0.04,7.223c-0.011,1.277-0.166,2.538-0.528,3.768
		C54.613,41.257,54.114,41.648,54.583,42.15z"/>
	<path fill="#0B0D09" d="M41.607,40.167c0.063,0.575,0.126,1.151,0.189,1.726c-0.265,1.219-0.916,2.158-2.018,2.766
		c-0.236-0.061-0.423,0.03-0.59,0.187c-0.744,0.087-1.414-0.175-2.081-0.447c-0.039-0.18-0.166-0.262-0.334-0.297
		c-0.275-0.516-0.549-1.033-0.824-1.549c0.104-0.408,0.1-0.803-0.134-1.172c0.282-1.511,1.198-2.451,2.672-2.77
		C39.897,38.307,40.827,39.123,41.607,40.167z M40.618,42.198c0.299-0.63-0.059-1.148-0.288-1.688
		c0.074-0.47-0.239-0.631-0.599-0.772c-1.167-0.458-2.738,0.645-2.719,1.954c0.007,0.464-0.027,1.033,0.639,1.176
		c1.083,1.24,2.168,1.124,2.821-0.303C40.521,42.442,40.569,42.32,40.618,42.198z"/>
	<path fill="#8E8E8E" d="M36.773,44.103c0.168,0.035,0.295,0.117,0.334,0.297C36.717,44.613,36.726,44.379,36.773,44.103z"/>
	<path fill="#8E8E8E" d="M39.188,44.846c0.167-0.157,0.354-0.248,0.59-0.187C39.659,44.968,39.452,44.997,39.188,44.846z"/>
	<path fill="#A1A1A1" d="M24.107,66.449l-0.084-0.027c0,0-0.049-0.069-0.048-0.068C24.066,66.322,24.128,66.328,24.107,66.449z"/>
	<path fill="#A1A1A1" d="M23.434,65.989c0,0-0.008-0.016-0.008-0.016C23.426,65.974,23.434,65.989,23.434,65.989z"/>
	<path fill="#A1A1A1" d="M55.299,28.924c-0.105-0.09-0.211-0.18-0.315-0.269c0.018-0.237,0.054-0.461,0.337-0.531
		C55.462,28.395,55.306,28.657,55.299,28.924z"/>
	<path fill="#92F352" d="M14.789,33.592c0.324,0.387,0.268,0.786,0.036,1.189C14.615,34.391,14.653,33.993,14.789,33.592z"/>
	<path fill="#B5FB63" d="M14.792,42.06c0.076,0.064,0.152,0.127,0.228,0.192c-0.069,0.13-0.138,0.259-0.208,0.388
		C14.662,42.451,14.603,42.26,14.792,42.06z"/>
	<path fill="#92F352" d="M14.813,37.419c0.203,0.149,0.336,0.297-0.002,0.443C14.678,37.714,14.701,37.566,14.813,37.419z"/>
	<path fill="#A1A1A1" d="M54.583,42.15c-0.469-0.502,0.03-0.893,0.151-1.328C55.176,41.32,54.719,41.717,54.583,42.15z"/>
	<path fill="#A1A1A1" d="M55.303,29.831c-0.229-0.147-0.382-0.295-0.002-0.444C55.402,29.535,55.391,29.683,55.303,29.831z"/>
	<path fill="#5A5A5A" d="M37.319,59.963c-0.797-0.189-0.833-0.875-0.902-1.482c-0.096-0.835,0.693-1.711,1.744-2.051
		c0.697-0.226,1.25-0.059,1.627,0.58c0.059,0.099,0.034,0.248,0.047,0.373c-1.129-0.477-1.637-0.319-2.367,0.735
		c-0.053,0.141-0.106,0.282-0.158,0.423C37.005,59.018,37.35,59.489,37.319,59.963z"/>
	<path fill="#FDFDFD" d="M37.467,58.12c0.73-1.054,1.239-1.212,2.367-0.735c0.198,0.51,0.469,1.01,0.225,1.583
		C39.195,58.685,38.331,58.402,37.467,58.12z"/>
	<path fill="#FDFDFD" d="M37.319,59.963c0.031-0.474-0.313-0.945-0.01-1.421c0.861,0.278,1.722,0.556,2.583,0.835
		C39.175,60.589,38.554,60.73,37.319,59.963z"/>
	<path fill="#8E8E8E" d="M39.892,59.377c-0.861-0.278-1.722-0.556-2.583-0.835c0.053-0.141,0.106-0.282,0.158-0.423
		c0.864,0.283,1.728,0.565,2.592,0.848C40.079,59.135,40.034,59.276,39.892,59.377z"/>
	<path fill="#5A5A5A" d="M37.651,51.325c-0.879-0.26-0.773-1.042-0.728-1.644c0.065-0.884,0.755-1.376,1.532-1.685
		c0.565-0.224,1.118-0.147,1.587,0.269c0.127,0.112,0.176,0.28,0.106,0.457c-0.925-0.22-1.682-0.006-2.192,0.847
		c-0.046,0.146-0.091,0.293-0.137,0.439C37.455,50.408,37.785,50.896,37.651,51.325z"/>
	<path fill="#DDF3D8" d="M37.651,51.325c0.133-0.429-0.197-0.917,0.168-1.316c0.862,0.289,1.724,0.578,2.586,0.867
		C39.692,52.207,38.844,52.345,37.651,51.325z"/>
	<path fill="#FDFDFD" d="M37.956,49.57c0.51-0.853,1.267-1.068,2.192-0.847c0.377,0.51,0.604,1.058,0.431,1.707
		C39.664,50.266,38.797,49.957,37.956,49.57z"/>
	<path fill="#8E8E8E" d="M37.956,49.57c0.841,0.387,1.708,0.696,2.622,0.86c-0.058,0.149-0.115,0.298-0.173,0.447
		c-0.862-0.289-1.724-0.578-2.586-0.867C37.865,49.863,37.911,49.716,37.956,49.57z"/>
	<path fill="#5A5A5A" d="M37.651,42.867c-0.666-0.143-0.633-0.712-0.639-1.176c-0.019-1.308,1.552-2.412,2.719-1.954
		c0.359,0.141,0.673,0.303,0.599,0.772c-0.972-0.307-1.773-0.15-2.271,0.834c-0.19,0.078-0.205,0.246-0.216,0.417
		C37.779,42.129,37.715,42.498,37.651,42.867z"/>
	<path fill="#DDF3D8" d="M37.651,42.867c0.064-0.369,0.128-0.738,0.192-1.107c0.877,0.268,1.753,0.536,2.63,0.803
		C39.819,43.991,38.734,44.107,37.651,42.867z"/>
	<path fill="#FDFDFD" d="M38.059,41.344c0.498-0.984,1.299-1.141,2.271-0.834c0.229,0.54,0.588,1.058,0.288,1.688
		C39.765,41.913,38.912,41.629,38.059,41.344z"/>
	<path fill="#8E8E8E" d="M38.059,41.344c0.853,0.285,1.706,0.569,2.559,0.854c-0.049,0.122-0.097,0.244-0.146,0.366
		c-0.877-0.268-1.753-0.536-2.63-0.803C37.854,41.59,37.868,41.422,38.059,41.344z"/>
</g>
</svg>
