<?xml version="1.0" encoding="utf-8"?>
<!-- Generator: Adobe Illustrator 17.0.0, SVG Export Plug-In . SVG Version: 6.00 Build 0)  -->
<!DOCTYPE svg PUBLIC "-//W3C//DTD SVG 1.1//EN" "http://www.w3.org/Graphics/SVG/1.1/DTD/svg11.dtd">
<svg version="1.1" id="Layer_1" xmlns="http://www.w3.org/2000/svg" xmlns:xlink="http://www.w3.org/1999/xlink" x="0px" y="0px"
	 width="56.899px" height="48.657px" viewBox="19.962 59.439 56.899 48.657" enable-background="new 19.962 59.439 56.899 48.657"
	 xml:space="preserve">
<g>
	<g>
		<g>
			<g>
				<defs>
					<path id="SVGID_1_" d="M51.935,97.833l4.453,1.299c0,0,2.041,7.05,1.299,7.606s-27.521-2.288-31.232-3.215
						s-6.186-14.286-5.443-17.069s6.989-19.359,6.989-19.359s-2.969,0,0.928-0.928s16.513-5.442,17.069-5.442
						s11.133,2.227,11.133,2.227s3.154,11.132,2.598,11.317S46.369,85.587,51.935,97.833z"/>
				</defs>
				<clipPath id="SVGID_2_">
					<use xlink:href="#SVGID_1_"  overflow="visible"/>
				</clipPath>
				<g clip-path="url(#SVGID_2_)">
					<path fill="#DEDDDD" d="M55.111,101.957h-8.452v-3.21h-0.107c-0.749,1.23-2.889,4.173-8.88,4.173
						c-8.988,0-14.872-6.954-14.872-15.889c0-10.058,7.168-15.781,14.711-15.781c5.243,0,7.758,2.567,8.721,3.53V62.369h8.88
						L55.111,101.957L55.111,101.957z M39.116,94.628c5.563,0,7.597-4.547,7.597-7.65c0-3.584-2.568-7.436-7.49-7.436
						c-5.136,0-7.543,4.012-7.543,7.436C31.679,91.578,34.943,94.628,39.116,94.628z"/>
				</g>
			</g>
		</g>
		<g>
			<path fill="#C9C9C9" d="M74.926,92.647c-1.443,3.317-3.531,5.885-6.045,7.597c-2.461,1.766-5.402,2.675-8.453,2.675
				c-8.506,0-15.729-6.901-15.729-15.729c0-8.292,6.527-15.941,15.568-15.941s15.676,7.168,15.676,16.209
				c0,1.177-0.107,1.659-0.215,2.354H53.474c0.533,3.53,3.477,5.617,6.953,5.617c2.729,0,4.174-1.23,5.404-2.782H74.926z
				 M67.062,83.819c-0.375-1.766-2.141-5.082-6.74-5.082c-4.602,0-6.367,3.316-6.742,5.082H67.062z"/>
		</g>
	</g>
</g>
</svg>
