<?xml version="1.0" encoding="utf-8"?>
<!-- Generator: Adobe Illustrator 17.0.0, SVG Export Plug-In . SVG Version: 6.00 Build 0)  -->
<!DOCTYPE svg PUBLIC "-//W3C//DTD SVG 1.1//EN" "http://www.w3.org/Graphics/SVG/1.1/DTD/svg11.dtd">
<svg version="1.1" id="Layer_1" xmlns="http://www.w3.org/2000/svg" xmlns:xlink="http://www.w3.org/1999/xlink" x="0px" y="0px"
	 width="70px" height="70px" viewBox="0 0 70 70" enable-background="new 0 0 70 70" xml:space="preserve">
<g>
	<polygon fill="#FDFDFD" points="36.713,41.89 35.348,44.601 35.767,48.336 42.067,50.86 47.179,51.605 49.563,47.192 49.117,43.17 
		47.975,40.451 44.38,40.119 	"/>
	<g>
		<path fill="#76BF20" d="M12.642,43.719c-0.086,0.032-0.195,0.041-0.255,0.099c-1.275,1.229-2.601,2.412-3.804,3.708
			c-2.683,2.893-3.91,6.429-4.342,10.289c-0.237,2.111-0.141,4.211,0.14,6.31c0.216,1.612,1.44,2.839,3.054,2.975
			c4.933,0.415,9.848,0.433,14.705-0.725c1.552-0.37,3.012-0.977,4.444-1.664c-0.044-0.737-0.088-1.473-0.132-2.21
			c-0.582-0.459-1.136-0.95-1.633-1.502c-0.061-0.036-0.132-0.062-0.182-0.109c-3.686-3.476-7.034-7.232-9.578-11.643
			c-0.696-1.206-1.392-2.421-1.741-3.791C12.947,44.934,12.967,44.259,12.642,43.719z"/>
		<path fill="#4F565C" d="M26.452,62.502c0.044,0.737,0.088,1.474,0.132,2.21c0.851,3.449,2.94,5.099,6.474,5.223
			c3.133,0.11,6.259,0.119,9.372-0.294c3.24-0.43,6.368-1.219,9.191-2.954c0.219-0.135,0.469-0.231,0.618-0.461
			c-0.152-0.095-0.303-0.19-0.455-0.284c-1.017-0.255-1.897-0.813-2.824-1.269c-3.592-1.769-6.981-3.857-10.12-6.35
			c-1.548-1.229-1.565-1.207-1.112-3.102c0.005-0.023,0.015-0.045,0.025-0.067c0.187-0.406,0.012-0.62-0.378-0.736
			c-0.611-0.182-1.211-0.402-1.829-0.552c-0.413-0.1-0.61-0.353-0.668-0.725c-0.211-1.371-0.362-2.752-0.616-4.114
			c-0.161-0.864-0.066-1.788-0.547-2.584c-0.747,0.452-1.312,1.118-1.969,1.677c-1.256,1.341-2.251,2.868-3.155,4.459
			c-0.531,1.306-1.013,2.631-1.436,3.976c-0.033,0.416-0.065,0.833-0.277,1.208C26.736,59.342,26.594,60.922,26.452,62.502z"/>
		<path fill="#50575C" d="M48.686,19.874c-1.017-0.556-2.032-1.115-3.051-1.666c-2.498-1.352-5.14-1.737-7.908-1.097
			c-2.167,0.501-3.009,1.643-2.907,3.861c0.012,0.258-0.033,0.372-0.288,0.46c-2.981,1.029-4.125,3.592-3.31,6.759
			c0.529,2.055,0.924,4.173,1.864,6.09c0.408,0.832,0.932,1.673,1.759,2.22c-0.099-0.595-0.529-1.04-0.721-1.595
			c-0.242-0.698,0.095-1.243,0.824-1.31c1.051-0.097,1.784,0.466,1.858,1.612c0.064,1.002,0.494,1.567,1.418,1.921
			c0.529,0.203,0.588,0.103,0.571-0.39c-0.062-1.833,0.566-3.435,1.7-4.851c0.424-0.529,0.68-1.12,0.819-1.786
			c0.218-1.05-0.168-2.008-0.376-2.996c-0.061-0.031-0.107-0.068-0.028-0.126c0.004-0.003,0.05,0.05,0.076,0.077
			c1.412,0.653,2.888,0.751,4.427,0.641c2.088-0.149,4.004,0.296,5.381,2.066c0.089,0,0.177,0.001,0.266,0.001
			c0.295-0.971,0.373-1.978,0.489-2.978c-0.014-1.002-0.028-2.005-0.041-3.007c-0.111-1.269-0.653-2.309-1.663-3.09
			C49.471,20.402,49.073,20.145,48.686,19.874z"/>
		<path fill="#50575C" d="M60.611,10.846c0.375-0.066,0.357-0.408,0.427-0.658c0.419-1.496,0.557-3.023,0.432-4.572
			c-0.066-0.815-0.333-1.454-1.286-1.595c-0.58-0.086-0.999-0.515-1.414-0.908c-1.653-1.564-3.529-2.71-5.827-3.013
			c-1.349-0.178-2.693-0.146-3.996,0.325c-1.374,0.496-2.039,1.516-1.862,2.961c0.032,0.259,0.016,0.338-0.212,0.446
			c-2.333,1.101-3.17,2.509-2.753,5.046c0.251,1.531,0.495,3.086,1.018,4.558c0.392,1.102,0.809,2.22,1.799,2.974
			c-0.007-0.324-0.236-0.559-0.344-0.843c-0.306-0.805,0.045-1.342,0.894-1.291c0.759,0.045,1.323,0.338,1.323,1.235
			c-0.001,0.697,0.135,1.336,0.965,1.599c0.427,0.136,0.616,0.241,0.639-0.353c0.057-1.48,0.563-2.813,1.472-3.991
			c0.707-0.916,0.739-1.965,0.548-3.043c-0.066-0.371-0.179-0.733-0.269-1.099c-0.051-0.046-0.095-0.096-0.015-0.149
			c0.009-0.006,0.058,0.048,0.088,0.074c0.514,0.16,0.996,0.394,1.542,0.484c1.153,0.19,2.308,0.026,3.46,0.1
			c1.307,0.084,2.414,0.569,3.247,1.609c0.045,0.038,0.09,0.075,0.136,0.113L60.611,10.846z"/>
		<path fill="#F1AB7D" d="M40.937,27.107c0.209,0.987,0.594,1.946,0.376,2.995c-0.138,0.666-0.395,1.257-0.819,1.786
			c-1.134,1.417-1.763,3.018-1.7,4.851c0.017,0.493-0.042,0.593-0.571,0.39c-0.924-0.354-1.353-0.919-1.418-1.921
			c-0.073-1.146-0.807-1.708-1.858-1.612c-0.73,0.067-1.066,0.612-0.824,1.31c0.192,0.555,0.622,1,0.721,1.595
			c0.496,0.867,1.407,1.384,1.9,2.254c1.069,0.716,2.077,1.515,3.238,2.101c1.72,0.868,3.455,1.609,5.441,1.44
			c0.693-0.335,1.437-0.564,2.087-0.991c0.084-0.048,0.169-0.097,0.253-0.146c0.204-0.282,0.445-0.524,0.742-0.709
			c0.607-0.926,1.249-1.834,1.57-2.912c0.247-0.828,0.475-1.662,0.711-2.493c0.163-1.76,0.243-3.52,0.007-5.28
			c-1.378-1.771-3.293-2.215-5.381-2.066c-1.539,0.11-3.014,0.011-4.427-0.641L40.937,27.107z"/>
		<path fill="#50575C" d="M26.313,30.4c-0.104-2.949-0.971-5.619-3.124-7.706c-2.499-2.422-5.514-2.548-8.621-1.528
			c-3.044,1-4.786,3.238-5.33,6.357c-0.506,2.896,0.089,5.606,1.69,8.08c0.188,0.291,0.349,0.628,0.715,0.761
			c-0.018-0.51-0.344-0.919-0.458-1.405c-0.131-0.557,0.081-0.863,0.561-1.051c0.914-0.36,1.698,0.066,1.722,1.071
			c0.031,1.249,0.665,1.863,1.848,2.154c-0.117-1.057-0.109-2.089-0.026-3.125c0.035-0.435,0.202-0.658,0.558-0.877
			c1.279-0.785,1.882-1.933,1.797-3.454c-0.032-0.565-0.256-1.089-0.315-1.722c2.208,0.98,4.395,0.764,6.578,0.217
			c0.375-0.094,0.549,0.003,0.766,0.276C25.202,29.113,25.764,29.751,26.313,30.4z"/>
		<path fill="#F1AB7D" d="M26.313,30.4c-0.548-0.649-1.111-1.287-1.638-1.953c-0.216-0.273-0.391-0.37-0.766-0.276
			c-2.183,0.547-4.37,0.763-6.578-0.217c0.059,0.633,0.283,1.157,0.315,1.722c0.085,1.521-0.519,2.669-1.797,3.454
			c-0.356,0.219-0.524,0.441-0.558,0.877c-0.082,1.036-0.091,2.067,0.026,3.125c-1.183-0.29-1.818-0.904-1.848-2.154
			c-0.025-1.005-0.808-1.43-1.722-1.071c-0.48,0.189-0.692,0.494-0.561,1.051c0.114,0.485,0.44,0.894,0.458,1.405
			c0.641,0.751,1.283,1.502,1.923,2.253c0.547,0.402,1.063,0.856,1.646,1.197c1.927,1.129,3.82,2.406,6.247,1.926
			c0.734-0.137,1.343-0.555,1.99-0.888c0.042-0.036,0.085-0.072,0.127-0.108c0.193-0.265,0.39-0.525,0.725-0.625
			c0.292-0.752,0.864-1.35,1.146-2.113c0.842-2.28,1.217-4.613,0.88-7.038C26.301,30.782,26.316,30.589,26.313,30.4z"/>
		<path fill="#F1AB7D" d="M60.484,10.742c-0.833-1.04-1.94-1.525-3.247-1.609c-1.151-0.074-2.306,0.09-3.46-0.1
			c-0.546-0.09-1.028-0.324-1.542-0.484c-0.024,0.025-0.049,0.05-0.074,0.075c0.091,0.366,0.204,0.728,0.27,1.099
			c0.192,1.079,0.159,2.128-0.548,3.043c-0.909,1.178-1.415,2.511-1.472,3.991c-0.023,0.594-0.212,0.489-0.639,0.353
			c-0.829-0.264-0.965-0.903-0.965-1.599c0.001-0.897-0.564-1.189-1.323-1.235c-0.849-0.051-1.2,0.487-0.894,1.291
			c0.108,0.284,0.337,0.519,0.344,0.843c0.465,0.852,1.295,1.42,1.761,2.271c0.201-0.016,0.366,0.05,0.511,0.196
			c0.454,0.456,0.994,0.8,1.551,1.11c1.652,0.921,3.37,1.583,5.318,1.263c0.718-0.065,1.241-0.663,1.963-0.718
			c0.019-0.292,0.212-0.45,0.444-0.578c1.606-2.005,2.078-4.383,2.233-6.857c0.047-0.75-0.183-1.495-0.105-2.251
			c0,0,0.009,0.008,0.009,0.008C60.575,10.817,60.53,10.779,60.484,10.742z"/>
		<path fill="#50575C" d="M52.354,66.146c2.951-2.136,5.039-4.765,4.943-8.644c-0.097-3.926-0.206-7.852-1.104-11.702
			c-0.139-0.597-0.328-1.183-0.494-1.774c-0.453-0.981-0.833-2.009-1.767-2.675c-1.62-1.156-3.412-1.223-5.276-0.847
			c0.034,0.134,0.029,0.299,0.107,0.397c0.661,0.827,1.301,1.677,2.019,2.453c0.974,1.053,1.73,2.158,1.431,3.69
			c-0.013,0.068,0.004,0.142-0.003,0.213c-0.055,0.569,0.139,1.019,0.475,1.499c0.365,0.521,1.007,0.95,0.94,1.691
			c-0.118,1.312-0.219,2.624-0.308,3.939c-0.14,2.062-0.361,4.119-0.534,6.179c-0.11,1.312-0.196,2.627-0.29,3.94
			c-0.012,0.163-0.082,0.265-0.244,0.299c0.017,0.198,0.035,0.396,0.052,0.593c0.014,0.094,0.028,0.188,0.042,0.282
			C52.348,65.836,52.351,65.991,52.354,66.146z"/>
		<path fill="#5B6268" d="M33.715,46.442c0.481,0.797,0.386,1.721,0.547,2.584c0.254,1.362,0.405,2.743,0.616,4.114
			c0.057,0.372,0.255,0.625,0.668,0.725c0.618,0.15,1.219,0.37,1.829,0.552c0.39,0.116,0.565,0.33,0.378,0.736
			c-0.01,0.021-0.019,0.044-0.025,0.067c-0.453,1.895-0.436,1.873,1.112,3.102c3.139,2.493,6.528,4.581,10.12,6.35
			c0.927,0.457,1.807,1.014,2.824,1.269c-0.889-0.82-1.777-1.64-2.666-2.46c-3.843-3.529-7.277-7.408-10.065-11.831
			c-1.099-1.742-2.123-3.529-2.781-5.498c-0.235-0.557-0.47-1.115-0.741-1.756C34.908,45.134,34.123,45.613,33.715,46.442z"/>
		<path fill="#F0C95C" d="M62.062,41.327c1.814-1.262,3.011-2.984,3.754-5.042c0.055-0.151,0.067-0.324,0.069-0.488
			c0.042-3.816-0.024-7.625-0.871-11.37c-0.303-1.34-0.638-2.706-1.754-3.643c-1.327-1.113-2.884-1.175-4.498-0.822
			c0.365,0.894,1.024,1.584,1.655,2.279c0.86,0.947,1.605,1.908,1.339,3.305c-0.09,0.472,0.09,0.914,0.386,1.254
			c0.714,0.819,0.663,1.784,0.589,2.749c-0.17,2.227-0.379,4.451-0.549,6.678c-0.131,1.714-0.228,3.43-0.34,5.145
			c0,0,0.032-0.011,0.032-0.011C61.936,41.35,61.999,41.338,62.062,41.327z"/>
		<path fill="#E8E7E9" d="M36.271,46.153c0.657,1.969,1.682,3.756,2.781,5.498c2.789,4.423,6.222,8.302,10.065,11.83
			c-0.046-0.255-0.075-0.513-0.139-0.763c-0.974-3.786-1.979-7.564-2.91-11.361c-0.213-0.869-0.673-1.409-1.421-1.787
			c-0.453,1.44-0.577,1.471-1.914,0.604c-1.955-1.268-3.92-2.522-5.882-3.781C36.674,46.279,36.495,46.161,36.271,46.153z"/>
		<path fill="#F0C95C" d="M44.647,49.57c0.748,0.378,1.208,0.918,1.421,1.787c0.931,3.797,1.936,7.575,2.91,11.361
			c0.064,0.249,0.093,0.508,0.139,0.763c0.889,0.821,1.778,1.641,2.667,2.461c0.152,0.095,0.303,0.19,0.455,0.284
			c0.039-0.027,0.077-0.054,0.116-0.08c-0.003-0.155-0.006-0.311-0.009-0.466c-0.072-0.086-0.104-0.177-0.042-0.282
			c-0.017-0.198-0.035-0.396-0.052-0.593c-0.061-0.748-0.095-1.5-0.191-2.244c-0.086-0.667-0.019-1.357-0.274-2.001
			c-0.226-0.166-0.281-0.434-0.377-0.669c-1.04-2.54-2.037-5.098-3.117-7.621c-0.705-1.648-1.337-3.285-1.038-5.124
			c-0.548-0.473-1.266-0.562-1.902-0.836c-0.221-0.095-0.364,0.024-0.381,0.262C44.903,47.575,44.595,48.553,44.647,49.57z"/>
		<path fill="#F0C95C" d="M48.657,40.504c1.864-0.375,3.656-0.309,5.276,0.847c0.934,0.666,1.314,1.694,1.767,2.675
			c1.913-0.421,3.761-1.014,5.444-2.047c0.177-0.109,0.387-0.181,0.491-0.384c-0.212-0.141-0.105-0.521-0.433-0.575
			c-0.129,0.036-0.238,0.149-0.396,0.059c-2.215-1.248-4.527-2.325-6.648-3.738c-1.132-0.754-2.248-1.531-3.371-2.297
			c-0.236,0.831-0.465,1.665-0.711,2.493c-0.321,1.078-0.963,1.986-1.57,2.912C48.557,40.469,48.607,40.487,48.657,40.504z"/>
		<path fill="#73BC20" d="M28.591,52.577c0.904-1.591,1.899-3.117,3.155-4.459c-0.208-1.644-0.56-3.249-1.097-4.824
			c-0.987-2.898-3.521-3.452-5.636-3.2c-0.187,0.022-0.372,0.069-0.558,0.105c0.531,0.917,1.251,1.691,1.901,2.517
			c0.66,0.84,1.507,1.592,1.231,2.841c-0.246,1.114,0.332,1.963,0.978,2.751c0.294,0.358,0.316,0.705,0.28,1.113
			C28.753,50.473,28.675,51.526,28.591,52.577z"/>
		<path fill="#FD5A68" d="M61.202,41.021c0.328,0.054,0.22,0.435,0.432,0.575c0.115-0.024,0.177-0.096,0.189-0.212
			c-0.123-1.442-0.246-2.884-0.368-4.326c-0.095-0.186-0.206-0.365-0.283-0.558c-1.009-2.493-1.968-5.008-3.039-7.475
			c-0.481-1.108-0.61-2.209-0.5-3.375c-0.422-0.579-1.138-0.568-1.711-0.842c-0.152-0.072-0.266,0.041-0.279,0.212
			c-0.064,0.862-0.316,1.705-0.263,2.579c0.751,0.362,1.114,0.944,1.308,1.779c0.742,3.19,1.571,6.36,2.367,9.538
			C59.641,39.752,60.578,40.226,61.202,41.021z"/>
		<path fill="#DC9976" d="M45.425,42.297c-1.986,0.169-3.721-0.572-5.441-1.44c-1.161-0.586-2.169-1.385-3.238-2.101
			c-0.01,1.111-0.015,2.222-0.032,3.334c-0.004,0.259,0.088,0.454,0.275,0.622c2.094,1.887,4.476,3.127,7.34,3.33
			c0.483,0.034,0.673-0.131,0.766-0.582C45.311,44.415,45.455,43.366,45.425,42.297z"/>
		<path fill="#E8E7E9" d="M47.254,47.146c-0.298,1.839,0.334,3.477,1.038,5.124c1.079,2.523,2.077,5.081,3.117,7.621
			c0.096,0.235,0.151,0.503,0.377,0.669c0.356-0.329,0.011-0.671-0.018-0.986c-0.334-3.628-0.816-7.238-1.575-10.804
			c-0.556-2.614-1.179-5.214-2.429-7.61c-0.084,0.049-0.169,0.097-0.253,0.146c0.396,0.827,0.224,1.744,0.414,2.607
			c0.16,0.728,0.244,1.479,0.291,2.225C48.268,46.961,48.07,47.131,47.254,47.146z"/>
		<path fill="#83CA27" d="M28.591,52.577c0.084-1.052,0.162-2.104,0.255-3.155c0.036-0.408,0.013-0.755-0.28-1.113
			c-0.646-0.788-1.223-1.637-0.978-2.751c0.275-1.249-0.571-2.001-1.231-2.841c-0.65-0.827-1.37-1.6-1.901-2.517
			c-0.051-0.027-0.103-0.053-0.154-0.08c-0.335,0.1-0.532,0.36-0.725,0.625c0.159,0.342,0.332,0.679,0.474,1.028
			c1.379,3.397,1.975,6.984,2.532,10.578c0.217,1.397,0.383,2.802,0.572,4.204C27.578,55.208,28.06,53.884,28.591,52.577z"/>
		<path fill="#F6D571" d="M61.455,37.059c0.123,1.442,0.245,2.883,0.368,4.326c0,0,0.019-0.014,0.019-0.013
			c0.112-1.714,0.208-3.431,0.34-5.145c0.17-2.227,0.379-4.451,0.549-6.678c0.074-0.965,0.124-1.931-0.589-2.749
			c-0.296-0.34-0.476-0.781-0.386-1.254c0.266-1.397-0.479-2.358-1.339-3.305c-0.631-0.695-1.29-1.385-1.655-2.279
			c-0.093-0.003-0.185-0.006-0.278-0.009c-0.232,0.128-0.425,0.286-0.444,0.578c0.01,0.083,0.019,0.165,0.029,0.248
			c0.162,0.118,0.218,0.297,0.295,0.473c1.211,2.756,1.747,5.69,2.238,8.63C60.998,32.26,61.291,34.652,61.455,37.059z"/>
		<path fill="#EEEEF0" d="M12.642,43.719c0.325,0.54,0.305,1.215,0.675,1.738c0.322-0.033,0.514,0.218,0.745,0.363
			c1.674,1.056,3.33,2.14,5.007,3.189c1.027,0.643,1.258,0.524,1.458-0.658c0.123-0.826,0.246-1.653,0.368-2.479
			c0.033-0.225,0.003-0.48,0.284-0.584c-0.043-0.043-0.086-0.087-0.129-0.13c-2.975,0.081-5.377-1.206-7.507-3.143
			C13.003,42.457,12.772,43.061,12.642,43.719z"/>
		<path fill="#DC9976" d="M13.543,42.016c2.13,1.937,4.532,3.224,7.507,3.143c0.25-1.126,0.328-2.272,0.409-3.419
			c-2.427,0.48-4.32-0.797-6.247-1.926c-0.583-0.341-1.099-0.795-1.646-1.197C13.559,39.75,13.551,40.883,13.543,42.016z"/>
		<path fill="#DC9976" d="M56.077,21.249c-1.949,0.32-3.667-0.342-5.318-1.263c-0.556-0.31-1.096-0.654-1.551-1.11
			c-0.145-0.145-0.309-0.212-0.511-0.196c-0.004,0.397-0.007,0.795-0.011,1.193c0.387,0.272,0.786,0.528,1.159,0.817
			c1.01,0.781,1.552,1.822,1.663,3.091c0.135,0.037,0.279,0.057,0.405,0.115c0.889,0.407,1.834,0.59,2.791,0.748
			c0.623,0.103,0.967-0.054,1.057-0.728C55.879,23.028,56.061,22.149,56.077,21.249z"/>
		<path fill="#F6D571" d="M62.062,41.327c-0.063,0.011-0.125,0.022-0.188,0.034C61.962,41.493,62.009,41.396,62.062,41.327z"/>
		<path fill="#D6D7D8" d="M20.528,48.352c-0.201,1.182-0.431,1.3-1.458,0.658c-1.677-1.05-3.334-2.134-5.007-3.189
			c-0.231-0.145-0.423-0.396-0.745-0.363c0.349,1.37,1.045,2.585,1.741,3.791c2.545,4.411,5.893,8.167,9.578,11.643
			c0.05,0.047,0.121,0.073,0.181,0.108c-0.912-3.466-1.862-6.922-2.711-10.403C21.861,49.588,21.485,48.799,20.528,48.352z"/>
		<path fill="#21A8EB" d="M20.528,48.352c0.957,0.447,1.334,1.236,1.58,2.244c0.849,3.48,1.799,6.936,2.711,10.403
			c0.498,0.553,1.051,1.044,1.634,1.503c0.142-1.58,0.284-3.16,0.426-4.74c-0.108-0.206-0.235-0.405-0.323-0.62
			c-0.936-2.295-1.807-4.619-2.819-6.88c-0.583-1.304-0.806-2.59-0.535-3.976c-0.559-0.565-1.387-0.585-2.022-0.997
			c-0.281,0.104-0.251,0.359-0.284,0.584C20.773,46.699,20.65,47.526,20.528,48.352z"/>
		<path fill="#D6D7D8" d="M23.201,46.286c-0.271,1.386-0.048,2.672,0.535,3.976c1.012,2.261,1.883,4.584,2.819,6.88
			c0.088,0.215,0.214,0.414,0.323,0.62c0.212-0.375,0.244-0.792,0.277-1.208c-0.189-1.401-0.356-2.806-0.572-4.204
			c-0.557-3.594-1.153-7.18-2.532-10.578c-0.142-0.349-0.315-0.686-0.474-1.028c-0.042,0.036-0.085,0.072-0.127,0.108
			c0.179,1.417,0.337,2.836,0.545,4.249C24.121,45.963,23.973,46.233,23.201,46.286z"/>
		<path fill="#E8E7E9" d="M59.055,38.917c-0.796-3.178-1.625-6.348-2.367-9.538c-0.194-0.835-0.557-1.416-1.308-1.779
			c-0.487,1.172-0.578,1.183-1.71,0.453c-0.691-0.446-1.358-0.939-2.121-1.265c-0.116,1.001-0.194,2.007-0.489,2.978
			c0.339,0.483,0.669,0.974,1.019,1.449C54.147,34.016,56.414,36.636,59.055,38.917z"/>
		<path fill="#F6D571" d="M59.055,38.917c-2.641-2.281-4.908-4.901-6.976-7.701c-0.351-0.475-0.68-0.966-1.019-1.449
			c-0.089,0-0.177-0.001-0.266-0.001c0.236,1.76,0.157,3.52-0.007,5.28c1.123,0.766,2.239,1.543,3.37,2.297
			c2.122,1.413,4.433,2.489,6.648,3.738c0.158,0.089,0.267-0.023,0.396-0.059C60.578,40.226,59.641,39.752,59.055,38.917z"/>
		<path fill="#FDFDFD" d="M51.549,26.788c0.764,0.326,1.43,0.819,2.121,1.265c1.132,0.73,1.222,0.719,1.71-0.453
			c-0.053-0.874,0.199-1.717,0.263-2.579c0.013-0.172,0.127-0.285,0.279-0.212c0.573,0.274,1.289,0.262,1.711,0.842
			c0.707-0.059,0.916-0.426,0.811-1.197c-0.166-1.22-0.479-2.427-0.377-3.675c-0.009-0.082-0.019-0.165-0.029-0.248
			c-0.722,0.055-1.245,0.652-1.963,0.718c-0.016,0.9-0.198,1.779-0.316,2.666c-0.09,0.675-0.434,0.831-1.057,0.728
			c-0.957-0.158-1.902-0.341-2.791-0.748c-0.126-0.058-0.27-0.077-0.405-0.115C51.522,24.784,51.535,25.786,51.549,26.788z"/>
		<path fill="#F1AB7D" d="M40.986,27.058c-0.026-0.027-0.072-0.08-0.076-0.077c-0.079,0.058-0.034,0.095,0.028,0.126
			C40.937,27.107,40.986,27.058,40.986,27.058z"/>
		<path fill="#FDFDFD" d="M60.484,10.742c0.045,0.038,0.09,0.075,0.136,0.113C60.575,10.817,60.53,10.779,60.484,10.742z"/>
		<path fill="#F1AB7D" d="M52.236,8.548c-0.03-0.026-0.079-0.08-0.088-0.074c-0.08,0.053-0.037,0.103,0.015,0.149
			C52.187,8.599,52.211,8.574,52.236,8.548z"/>
		<path fill="#5B6268" d="M47.765,41.16c1.25,2.396,1.873,4.995,2.429,7.61c0.758,3.566,1.24,7.176,1.575,10.804
			c0.029,0.316,0.374,0.657,0.018,0.986c0.254,0.644,0.188,1.334,0.274,2.001c0.096,0.744,0.13,1.495,0.191,2.244
			c0.162-0.034,0.232-0.136,0.244-0.299c0.094-1.314,0.18-2.628,0.29-3.94c0.173-2.06,0.394-4.117,0.534-6.179
			c0.089-1.315,0.19-2.627,0.308-3.939c0.067-0.74-0.575-1.169-0.94-1.691c-0.336-0.48-0.529-0.93-0.475-1.499
			c0.007-0.07-0.011-0.144,0.003-0.213c0.299-1.533-0.457-2.637-1.431-3.69c-0.718-0.776-1.358-1.626-2.019-2.453
			c-0.079-0.098-0.073-0.263-0.107-0.397c-0.05-0.018-0.1-0.035-0.15-0.053C48.21,40.636,47.969,40.879,47.765,41.16z"/>
		<path fill="#FDFDFD" d="M23.201,46.286c0.772-0.054,0.92-0.323,0.793-1.185c-0.208-1.412-0.366-2.832-0.545-4.249
			c-0.647,0.332-1.256,0.75-1.99,0.888c-0.081,1.146-0.159,2.293-0.409,3.419c0.043,0.043,0.086,0.087,0.13,0.13
			C21.814,45.702,22.642,45.722,23.201,46.286z"/>
		<path fill="#5B6268" d="M52.303,65.398c-0.062,0.105-0.03,0.197,0.042,0.282C52.331,65.586,52.317,65.492,52.303,65.398z"/>
		<path fill="#E8E7E9" d="M58.068,20.779c-0.103,1.248,0.21,2.455,0.377,3.675c0.105,0.77-0.104,1.137-0.811,1.197
			c-0.11,1.166,0.018,2.267,0.5,3.375c1.071,2.466,2.03,4.981,3.039,7.475c0.078,0.193,0.188,0.372,0.283,0.558
			c-0.164-2.407-0.458-4.799-0.854-7.177c-0.491-2.941-1.026-5.874-2.238-8.63C58.286,21.076,58.23,20.897,58.068,20.779z"/>
	</g>
</g>
</svg>
