<?xml version="1.0" encoding="utf-8"?>
<!-- Generator: Adobe Illustrator 23.0.3, SVG Export Plug-In . SVG Version: 6.00 Build 0)  -->
<svg version="1.1" id="Layer_1" xmlns="http://www.w3.org/2000/svg" xmlns:xlink="http://www.w3.org/1999/xlink" x="0px" y="0px"
	 viewBox="0 0 1170 500" style="enable-background:new 0 0 1170 500;" xml:space="preserve">
<style type="text/css">
	.st0{fill:url(#SVGID_1_);}
	.st1{fill:url(#SVGID_2_);}
	.st2{fill:url(#SVGID_3_);}
	.st3{fill:url(#SVGID_4_);}
	.st4{fill:url(#SVGID_5_);}
	.st5{fill:#1C1C1C;}
	.st6{fill:url(#SVGID_6_);}
	.st7{fill:url(#SVGID_7_);}
	.st8{fill:url(#SVGID_8_);}
	.st9{fill:url(#SVGID_9_);}
	.st10{fill:url(#SVGID_10_);}
	.st11{fill:#FFFFFF;}
</style>
<g>
	<g>
		<linearGradient id="SVGID_1_" gradientUnits="userSpaceOnUse" x1="316.7131" y1="130.7309" x2="182.8539" y2="316.3083">
			<stop  offset="0.0103" style="stop-color:#0095FF"/>
			<stop  offset="1" style="stop-color:#0C2AFF"/>
		</linearGradient>
		<path class="st0" d="M336.87,145.05c-1.07-2.05-2.01-4.17-3.23-6.12c-9.26-14.89-19.46-28.96-34.87-38.23
			c-14.7-8.84-31.54-8.24-44.86,1.48c-7.39,4.3-13.44,10.08-18.56,16.88c0.45,0.35,0.91,0.71,1.36,1.06
			c-0.45-0.35-0.91-0.71-1.36-1.06c0,0-0.07,0.12-0.07,0.13c-0.3,0.08-0.46,0.28-0.47,0.59c0,0-0.14,0.18-0.14,0.18
			c-0.59,0.72-1.18,1.45-1.77,2.17c-1.83,1.69-3.4,3.58-4.35,5.92c-1.85,1.65-3.17,3.66-4.05,5.97c0.01-0.01,0.03-0.02,0.04-0.02
			c-0.26,0.37-0.52,0.75-0.78,1.12c0,0-0.04,0.08-0.04,0.08c-6.89,9.64-11.84,20.37-17.17,30.88c-3.84,7.71-7.67,15.42-11.51,23.13
			c-3.42,6.49-6.92,12.94-9.51,19.82c1.42-1.58,2.5-2.55,3.74-1.41c-1.24-1.13-2.32-0.16-3.74,1.42c-2.08,3.14-3.65,6.52-4.85,10.08
			c-3.03,5.13-5.38,10.59-7.71,16.06c-2.32,4.98-4.65,9.96-6.97,14.95c0.12-0.01,0.27-0.01,0.42-0.01c-0.15,0-0.3,0-0.42,0.01
			c-1.15,2.63-2.3,5.25-3.45,7.88c0.01,0,0.01,0,0.02,0c-0.22,0.37-0.45,0.74-0.67,1.11c-0.73,1.68-1.45,3.36-2.18,5.04
			c0.35,3.33,0.71,6.66,1.06,10c0,0,0,0,0,0c0.01,0.34,0.02,0.67,0.03,1.01c-0.1,1.13-0.18,2.26,0.86,3.07
			c0.46,5.58,3.13,10.27,5.97,14.89c4.05,5.96,10.12,9.39,16.14,12.87c5.93,1.36,11.69,3.63,17.92,3.37
			c3.36-0.1,6.73-0.2,10.09-0.29c0.98-2.64,1.95-5.28,2.93-7.92c2.36-3.68,3.55-7.86,5.06-11.9c2.18-3.74,3.86-7.7,5.1-11.84
			c2.34-4.25,4.38-8.64,5.84-13.28c2.34-4.17,4.33-8.49,5.85-13.03c2.06-3.53,3.84-7.19,5.09-11.1c3.68-7.64,7.35-15.29,11.03-22.93
			c4.03-7.63,8.06-15.26,12.09-22.89c3.29-4.05,5.29-9.16,9.95-12.08c1.74-1.9,3.48-3.79,5.22-5.69l-0.18-0.21
			c0.07,0.09,0.18,0.21,0.18,0.21c0.75-0.19,1.49-0.38,1.73-1.26c14.53-8.96,29.79-11.55,46.06-5.22c0.63,0.15,1.26,0.29,1.89,0.44
			c0,0,0,0,0,0c0.67,0.34,1.33,0.67,2,1.01c9.54,5.47,18.73,11.37,25.16,20.63c1.65,0.65,2.14,2.82,4.07,3.1
			C353.69,178.01,346.23,161.07,336.87,145.05z M167.37,250.03c-0.07,0.04-0.17,0.06-0.3,0.07
			C167.2,250.09,167.31,250.07,167.37,250.03z M166.65,250.11c0.08,0,0.15,0,0.22,0C166.8,250.11,166.73,250.11,166.65,250.11z
			 M163.45,274.3c0.21,0.04,0.42,0.08,0.63,0.14C163.87,274.38,163.66,274.34,163.45,274.3z M162.39,274.17
			c0.05,0,0.1,0.01,0.15,0.01C162.49,274.18,162.44,274.17,162.39,274.17z M279.34,175.39c0.08,0.25,0.23,0.48,0.36,0.71v0
			C279.58,175.87,279.43,175.64,279.34,175.39z"/>
		<linearGradient id="SVGID_2_" gradientUnits="userSpaceOnUse" x1="355.1949" y1="158.4882" x2="221.3357" y2="344.0657">
			<stop  offset="0.0103" style="stop-color:#0095FF"/>
			<stop  offset="1" style="stop-color:#0C2AFF"/>
		</linearGradient>
		<path class="st1" d="M306.9,226.11c0.1-0.12,0.29-0.34,0.28-0.36c-0.19-0.2-0.41-0.36-0.62-0.54
			C306.5,225.57,306.62,225.87,306.9,226.11z"/>
		<linearGradient id="SVGID_3_" gradientUnits="userSpaceOnUse" x1="346.6025" y1="152.2905" x2="212.7434" y2="337.8679">
			<stop  offset="0.0103" style="stop-color:#0095FF"/>
			<stop  offset="1" style="stop-color:#0C2AFF"/>
		</linearGradient>
		<path class="st2" d="M302.71,213.12c-0.07,0.15-0.15,0.29-0.22,0.44c0.08-0.14,0.16-0.28,0.25-0.42c0.07-0.15,0.15-0.3,0.22-0.45
			C302.87,212.84,302.79,212.98,302.71,213.12L302.71,213.12z"/>
	</g>
	<linearGradient id="SVGID_4_" gradientUnits="userSpaceOnUse" x1="383.4898" y1="412.9405" x2="267.8842" y2="155.8701">
		<stop  offset="0.0103" style="stop-color:#0095FF"/>
		<stop  offset="1" style="stop-color:#0C2AFF"/>
	</linearGradient>
	<path class="st3" d="M365.94,366.42h75.72l-73.52-155.9c-0.59-1.41-1.22-2.8-1.96-4.15l-1.68-3.56c-0.53-2.06-1.33-4.01-2.62-5.76
		c-0.09-0.8-0.09-1.64-1.03-1.97l0,0c0,0-0.08-0.03-0.08-0.03c0,0,0,0,0,0.01c-0.12-0.04-0.35-0.12-0.7-0.24
		c-1.31-0.66-1.89-2.28-3.28-2.83c-6.43-9.27-15.62-15.16-25.16-20.63c-0.67-0.34-1.33-0.67-2-1.01c-0.63-0.14-1.26-0.29-1.89-0.43
		c-16.27-6.33-31.52-3.75-46.06,5.22c-0.24,0.88-0.99,1.08-1.73,1.26c-1.74,1.9-3.48,3.8-5.22,5.69c4.45,0.59,9.65,6.05,14.8,13.49
		c2.52,3.8,4.78,7.76,7.2,11.63c9.61,17,17.5,36.37,17.5,36.37c-12.57,0-25.17,0-37.78,0c-0.74,0-1.46-0.03-2.13,0.04l-2.05,0
		l-12.45,28.23c-0.43,0.94-0.85,1.89-1.25,2.84l-8.09,18.35l60.85,0.07c6.57,0.11,13.14,0.29,19.69,0.02
		c3.74-0.05,6.03,1.22,7.45,2.81c0.41,0.64,0.76,1.4,1.03,2.32c0.39,1.14,0.82,2.27,1.23,3.4c0,0.03,0,0.07,0,0.07l0.32,0.81
		c0.92,2.48,1.87,4.95,2.88,7.39L365.94,366.42z"/>
	<linearGradient id="SVGID_5_" gradientUnits="userSpaceOnUse" x1="131.5757" y1="315.4707" x2="321.9991" y2="315.4707">
		<stop  offset="0.0103" style="stop-color:#0095FF"/>
		<stop  offset="1" style="stop-color:#0C2AFF"/>
	</linearGradient>
	<path class="st4" d="M313.23,346.66c-4.87-12.28-9.53-24.64-15.29-36.55c0,0,0,0,0,0c-0.4-0.24-0.81-0.69-1.22-0.69l-84.94-0.36
		c-2.69,0.08-5.38,0.16-8.07,0.23c-28.34-0.66-38.45-18.01-42.04-31.01c0-0.02-0.01-0.04-0.01-0.07c0,0-0.01-0.01-0.01-0.01
		c-0.34-1.25-0.63-2.47-0.86-3.62c-0.01-0.15-0.01-0.3-0.02-0.45c-0.35-3.33-0.71-6.66-1.06-10c0,0,0,0,0,0v0l-0.02,0.04
		c-6.18,13.57-12.42,27.11-18.52,40.7c-4.94,8.88-7.37,16.8-8.37,23.49c-0.27,1.25-0.52,2.51-0.72,3.79
		c-1.26,7.96-0.19,14.61,3.24,19.77c0.01,0.01,0.02,0.03,0.02,0.03c7.04,18.43,65.3,14.48,65.3,14.48H322L313.23,346.66z"/>
	<g>
		<path class="st5" d="M466.42,354.41v-77.36c5.9,2.79,10.33,3.93,14.42,3.93c7.54,0,15.9-3.44,26.22-3.44
			c11.64,0,24.26,3.93,24.26,16.88c0,11.47-10,19.5-10,19.5c0-15.41-15.08-17.87-27.37-15.08v68.18
			C493.96,367.03,466.42,367.03,466.42,354.41z"/>
		<path class="st5" d="M609.67,346.21c0,12.13-12.46,21.64-33.44,21.64c-25.24,0-41.14-11.47-41.14-30.81v-28.68
			c0-19.18,14.1-30.81,39.5-30.81c10.98,0,33.27,3.11,33.27,19.83c0,5.41-2.29,12.13-7.7,20c0-14.59-10.49-20.32-19.67-20.32
			c-8.85,0-17.87,1.31-17.87,16.72v17.37c0,12.29,5.57,16.72,17.21,16.72c14.1,0,23.6-8.03,23.77-16.23
			C607.21,336.71,609.67,341.95,609.67,346.21z"/>
		<path class="st5" d="M691.29,365.88c0,0-21.14,0-21.14-12.62V245.09c0,0,28.19,0,28.19,12.62v88.34h33.6
			c15.9,0,21.14-2.95,21.14-2.95c0,11.31-1.15,22.78-15.24,22.78H691.29z"/>
		<path class="st5" d="M846.67,337.03c0,19.34-13.6,30.81-42.45,30.81c-29.17,0-42.78-11.47-42.78-30.81v-28.68
			c0-19.18,13.6-30.81,42.78-30.81c28.85,0,42.45,11.64,42.45,30.81V337.03z M819.13,310.81c0-9.01-2.62-13.93-14.91-13.93
			c-12.62,0-15.24,4.92-15.24,13.93v23.77c0,9.02,2.62,14.1,15.24,14.1c12.29,0,14.91-5.08,14.91-14.1V310.81z"/>
		<path class="st5" d="M939.27,312.61c0,19.34-13.77,30.81-39.17,30.81c-10.82,0-20.32-4.1-20.32-4.1s-0.66,2.62-0.66,4.59
			c0,6.06,8.52,7.38,18.19,7.38h5.41c18.69,0,39.01-1.31,39.01,24.75c0,17.86-13.11,29.5-41.79,29.5
			c-25.24,0-38.03-8.03-38.03-18.36c0-4.92,2.13-9.83,6.56-15.41c2.62,14.1,19.01,14.59,28.85,14.59c12.46,0,17.7-2.62,17.7-8.85
			c0-5.74-5.25-6.39-12.78-6.39h-8.03c-19.5,0-35.24-2.79-35.24-18.85c0-6.72,3.77-11.97,9.67-19.01
			c-5.08-4.43-8.03-15.24-8.03-20.65v-6.39c0-20.98,17.87-28.68,35.57-28.68c9.02,0,18.85,3.61,27.04,3.61
			c4.1,0,9.01-1.15,16.06-3.77V312.61z M912.22,298.35c-3.28-1.15-7.54-1.8-11.15-1.8c-8.52,0-12.95,2.95-12.95,12.13v1.48
			c0,9.01,1.97,14.09,11.96,14.09c9.51,0,12.13-5.08,12.13-14.09V298.35z"/>
		<path class="st5" d="M1038.42,337.03c0,19.34-13.6,30.81-42.45,30.81c-29.17,0-42.78-11.47-42.78-30.81v-28.68
			c0-19.18,13.6-30.81,42.78-30.81c28.85,0,42.45,11.64,42.45,30.81V337.03z M1010.89,310.81c0-9.01-2.62-13.93-14.91-13.93
			c-12.62,0-15.24,4.92-15.24,13.93v23.77c0,9.02,2.62,14.1,15.24,14.1c12.29,0,14.91-5.08,14.91-14.1V310.81z"/>
	</g>
</g>
</svg>
