<?xml version="1.0" encoding="utf-8"?>
<!-- Generator: Adobe Illustrator 17.0.0, SVG Export Plug-In . SVG Version: 6.00 Build 0)  -->
<!DOCTYPE svg PUBLIC "-//W3C//DTD SVG 1.1//EN" "http://www.w3.org/Graphics/SVG/1.1/DTD/svg11.dtd">
<svg version="1.1" id="Layer_1" xmlns="http://www.w3.org/2000/svg" xmlns:xlink="http://www.w3.org/1999/xlink" x="0px" y="0px"
	 width="70px" height="70px" viewBox="0 0 70 70" enable-background="new 0 0 70 70" xml:space="preserve">
<g>
	<path fill="#69A591" d="M55.174,17.114c0.253,0.445,0.528,0.874,0.883,1.245c0.154,0.217,0.307,0.433,0.461,0.65
		c0.234,0.467,0.547,0.876,0.898,1.259c0.054,0.073,0.108,0.146,0.162,0.219c0.243,0.506,0.589,0.941,0.944,1.369
		c0.151,0.21,0.301,0.42,0.452,0.63c0.274,0.398,0.547,0.795,0.82,1.193c0.124,0.16,0.248,0.319,0.372,0.479
		c0.245,0.505,0.586,0.943,0.952,1.362c0.15,0.213,0.299,0.425,0.449,0.638c0.253,0.452,0.534,0.884,0.899,1.256
		c0.047,0.083,0.095,0.167,0.142,0.25c0.238,0.705,0.279,1.419,0.107,2.144c-0.44,0.702-0.88,1.404-1.32,2.106
		c-1.918,2.544-3.73,5.163-5.535,7.787c-0.653,0.827-1.263,1.684-1.806,2.588c-1.911,2.551-3.732,5.166-5.536,7.792
		c-0.692,0.881-1.346,1.788-1.917,2.753c-1.915,2.542-3.734,5.153-5.526,7.783c-0.669,0.819-1.269,1.686-1.813,2.593
		c-1.404,1.955-2.819,3.902-4.207,5.868c-0.435,0.617-0.951,0.97-1.728,0.826c-0.15-0.274-0.459-0.371-0.642-0.634
		c-1.49-2.143-3.007-4.265-4.512-6.398c-1.971-2.794-3.962-5.573-5.889-8.397c-0.46-0.674-1.118-1.241-1.309-2.088
		c4.649-6.572,9.3-13.143,13.946-19.717c4.236-5.994,8.473-11.986,12.693-17.991c0.961-1.368,2.008-2.677,2.843-4.132
		c0.177,0.218,0.354,0.436,0.532,0.654c0.109,0.146,0.218,0.292,0.327,0.438c0.25,0.5,0.588,0.94,0.95,1.363
		c0.149,0.212,0.298,0.424,0.448,0.636c0.255,0.45,0.53,0.885,0.903,1.25c0.042,0.19,0.157,0.329,0.304,0.446
		c0.203,0.438,0.508,0.805,0.811,1.173C54.88,16.71,55.027,16.912,55.174,17.114z M38.697,50.829
		c-0.397-0.221-0.785-0.117-1.151,0.064c-1.181,0.585-1.669,1.607-1.763,2.865c0.004,0.255,0.009,0.51,0.013,0.765
		c-0.027,0.005-0.054,0.012-0.081,0.019c-0.867-0.018-1.504,0.404-1.994,1.073c-1.017,1.39-0.96,3.789,0.11,5.152
		c0.984,1.254,2.446,1.217,3.385-0.077c0.608-0.838,0.799-1.793,0.825-2.799c0.06-0.022,0.12-0.045,0.18-0.067
		c1.039,0.133,2.16-1.113,2.287-2.236c0.294-0.801,0.271-1.612,0.087-2.43c-0.047-0.22-0.057-0.454-0.244-0.618
		c-0.167-0.602-0.466-1.105-1.052-1.391C39.164,50.919,38.938,50.86,38.697,50.829z M48.72,19.399
		c-0.652,0.835-1.324,1.654-1.835,2.589c-0.185,0.238-0.379,0.469-0.552,0.716c-1.654,2.358-3.304,4.718-4.956,7.078
		c-0.665,0.821-1.286,1.672-1.81,2.591c-1.956,2.599-3.845,5.247-5.665,7.943c-0.661,0.824-1.269,1.685-1.812,2.592
		c-1.919,2.541-3.731,5.158-5.526,7.788c-0.448,0.608-0.896,1.216-1.342,1.826c-0.162,0.221-0.251,0.446,0.001,0.668
		c0.189,0.451,0.513,0.808,0.821,1.176c0.061,0.211,0.22,0.346,0.379,0.481c0.252,0.5,0.566,0.956,0.948,1.365
		c0.106,0.15,0.212,0.3,0.319,0.45c0.409,0.604,0.818,1.208,1.27,1.875c0.32-0.444,0.587-0.807,0.847-1.175
		c1.96-2.774,3.918-5.55,5.876-8.325c0.618-0.769,1.178-1.578,1.675-2.431c1.956-2.597,3.813-5.265,5.642-7.951
		c0.667-0.821,1.275-1.683,1.812-2.593c1.915-2.544,3.741-5.151,5.526-7.786c0.664-0.821,1.285-1.672,1.81-2.591
		c0.73-0.988,1.42-2.011,2.204-2.953c0.532-0.639,0.504-1.128-0.105-1.637c-0.086-0.106-0.171-0.213-0.257-0.319
		c-0.272-0.583-0.674-1.075-1.094-1.554c-0.04-0.192-0.14-0.343-0.301-0.454c-0.273-0.394-0.545-0.788-0.818-1.182
		c-0.067-0.207-0.209-0.356-0.377-0.483c-0.487-0.898-0.489-0.9-1.058-0.075C49.8,17.815,49.261,18.608,48.72,19.399z
		 M57.604,25.376c-0.237-0.333-0.497-0.643-0.694-0.989c-0.271-0.475-0.44-0.421-0.738,0.003c-3.076,4.361-6.17,8.711-9.26,13.062
		c-1.933,2.722-3.847,5.458-5.819,8.153c-0.464,0.634-0.509,1.084-0.007,1.701c0.587,0.722,0.641,0.774,1.159,0.045
		c1.011-1.423,2.001-2.861,3.007-4.287c1.663-2.356,3.334-4.706,4.999-7.061c2.221-3.139,4.443-6.277,6.655-9.422
		C57.166,26.212,57.363,25.797,57.604,25.376z M59.397,28.024c0.011-0.131-0.936-1.468-1.037-1.486
		c-0.256-0.047-0.264,0.191-0.356,0.322c-1.011,1.424-2.016,2.853-3.026,4.278c-3.981,5.616-7.96,11.232-11.949,16.842
		c-0.457,0.642-0.807,1.195-0.107,1.947c0.557,0.599,0.545,0.672,1.036-0.024c2.478-3.517,4.946-7.041,7.429-10.554
		c2.293-3.245,4.602-6.479,6.901-9.719C58.669,29.093,59.036,28.548,59.397,28.024z"/>
	<path fill="#2B3E45" d="M50.458,10.547c-0.835,1.455-1.882,2.764-2.843,4.132c-4.22,6.005-8.457,11.998-12.693,17.991
		c-4.646,6.574-9.297,13.145-13.946,19.717c-0.044,0.005-0.088,0.007-0.132,0.006c-1.012-1.159-1.787-2.491-2.707-3.718
		c-0.721-0.962-1.495-1.889-2.047-2.969c0.008-0.053,0.017-0.106,0.025-0.158c0.467-0.442,0.759-1.012,1.125-1.528
		c6.89-9.729,13.777-19.46,20.666-29.19c2.594-3.663,5.193-7.323,7.79-10.985c0.063,0.049,0.126,0.097,0.189,0.146
		c0.145,0.201,0.29,0.402,0.435,0.603c0.242,0.452,0.536,0.868,0.884,1.244c0.101,0.256,0.251,0.476,0.462,0.655
		c0.24,0.464,0.551,0.878,0.893,1.27c0.054,0.07,0.108,0.14,0.161,0.21c0.255,0.498,0.589,0.941,0.952,1.363
		c0.101,0.245,0.245,0.458,0.45,0.629C50.235,10.159,50.346,10.353,50.458,10.547z"/>
	<path fill="#68A490" d="M45.697,3.844c-2.597,3.661-5.196,7.321-7.79,10.985c-6.889,9.729-13.775,19.461-20.666,29.19
		c-0.365,0.516-0.658,1.086-1.125,1.528c-1.016-1.187-1.929-2.444-2.617-3.853c-0.077-0.402,0.176-0.852-0.18-1.212
		c-2.021-0.002-4.043-0.004-6.064-0.006c-0.021-0.129,0.012-0.236,0.12-0.316c1.892,0.003,3.784,0.004,5.676,0.013
		c0.325,0.002,0.623,0.003,0.617-0.441c0.171-0.017,0.249-0.14,0.34-0.269c1.709-2.411,3.426-4.816,5.133-7.229
		c1.648-2.329,3.309-4.65,4.921-7.004c0.908-1.326,1.947-2.565,2.718-3.984c0,0-0.004,0.001-0.004,0.001
		c0.052-0.052,0.104-0.103,0.156-0.155c0,0-0.002,0.002-0.002,0.002c0.053-0.052,0.105-0.103,0.158-0.155
		c0.62-0.771,1.202-1.57,1.673-2.443l0,0c0.05-0.051,0.1-0.102,0.15-0.153l0.002-0.003c0.047-0.05,0.095-0.1,0.142-0.15
		c0.948-1.335,1.941-2.642,2.831-4.015c0.724-1.117,1.644-2.101,2.226-3.312c0.049-0.046,0.097-0.093,0.146-0.139
		c0.053-0.055,0.106-0.11,0.159-0.165c0.617-0.773,1.202-1.568,1.673-2.442L36.09,8.117c0.05-0.051,0.1-0.102,0.15-0.154
		c0,0,0.002-0.002,0.002-0.002c0.048-0.051,0.097-0.101,0.145-0.152c0.82-1.176,1.602-2.381,2.469-3.522
		c1.063-1.399,1.908-2.964,3.191-4.194c0.524-0.119,0.952,0.091,1.349,0.4c0.155,0.208,0.31,0.417,0.465,0.625
		c0.256,0.449,0.53,0.885,0.903,1.25c0.041,0.19,0.156,0.33,0.305,0.447C45.278,3.158,45.487,3.501,45.697,3.844z"/>
	<path fill="#527F71" d="M20.844,52.392c0.044,0.001,0.088-0.001,0.132-0.006c0.192,0.847,0.849,1.414,1.309,2.088
		c1.926,2.824,3.918,5.604,5.889,8.397c1.504,2.132,3.022,4.255,4.512,6.398c0.183,0.263,0.492,0.36,0.642,0.634
		c-0.249,0.023-0.499,0.046-0.748,0.069c-0.257,0.005-0.514,0.009-0.771,0.014c-0.497,0.005-0.995,0.009-1.492,0.014
		c-0.732-0.018-1.467-0.086-2.196-0.042c-0.856,0.051-1.427-0.297-1.908-0.979c-0.654-0.928-1.232-1.913-2.007-2.754
		c-0.037-0.193-0.152-0.333-0.304-0.448c-0.189-0.448-0.511-0.803-0.806-1.178c-0.148-0.203-0.296-0.406-0.444-0.609
		c-0.231-0.46-0.536-0.867-0.885-1.242c-0.05-0.189-0.147-0.345-0.321-0.446c-0.278-0.532-0.624-1.016-1.04-1.449
		c-0.001-0.035-0.017-0.061-0.048-0.078c-0.279-0.558-0.653-1.05-1.054-1.524c-0.151-0.211-0.302-0.421-0.452-0.632
		c-0.274-0.397-0.548-0.794-0.823-1.191c-0.122-0.16-0.243-0.32-0.365-0.481c-0.257-0.497-0.584-0.944-0.957-1.36
		c-0.109-0.242-0.241-0.469-0.45-0.64c-0.246-0.461-0.542-0.886-0.906-1.262c-0.043-0.185-0.151-0.326-0.3-0.439
		c-0.123-0.227-0.247-0.453-0.37-0.68c1.792-0.01,3.583-0.015,5.374-0.034C20.321,52.529,20.616,52.631,20.844,52.392z"/>
	<path fill="#81CEB4" d="M42.047,0.093c-1.283,1.23-2.129,2.795-3.191,4.194c-0.867,1.141-1.649,2.346-2.469,3.522
		c-0.048,0.051-0.097,0.101-0.145,0.152c0,0-0.002,0.002-0.002,0.002c-0.05,0.051-0.1,0.102-0.15,0.154c0,0,0.001,0.001,0.001,0.001
		c-0.386,0.006-0.557,0.328-0.782,0.553c-6.088,6.08-12.17,12.166-18.258,18.245c-0.24,0.24-0.419,0.6-0.847,0.574
		c1.078-1.549,2.157-3.098,3.231-4.649c0.186-0.268,0.352-0.55,0.527-0.825c0.579-0.77,1.158-1.541,1.737-2.311
		c0.3,0.039,0.459-0.178,0.637-0.356c5.987-5.986,11.975-11.972,17.956-17.964c0.137-0.137,0.47-0.283,0.235-0.527
		c-0.177-0.184-0.427-0.03-0.601,0.142c-0.145,0.143-0.289,0.286-0.433,0.43C34.44,6.48,29.389,11.533,24.333,16.581
		c-0.225,0.225-0.397,0.551-0.792,0.531c1.061-1.531,2.122-3.061,3.18-4.593c0.2-0.289,0.384-0.589,0.575-0.884
		c0.647-0.829,1.307-1.65,1.774-2.602c0.976-1.037,1.693-2.268,2.523-3.413c1.041-1.435,2.028-2.908,3.038-4.365
		c0.415-0.36,0.624-0.925,1.158-1.167C36.551,0.059,37.31,0.029,38.069,0c0.206,0.003,0.413,0.007,0.619,0.01
		C39.5,0.007,40.311,0.003,41.122,0c0.206,0.003,0.413,0.007,0.619,0.01C41.843,0.038,41.945,0.065,42.047,0.093z"/>
	<path fill="#81CEB4" d="M26.781,21.246c-0.772,1.419-1.81,2.658-2.718,3.984c-1.612,2.354-3.273,4.675-4.921,7.004
		c-1.707,2.412-3.425,4.817-5.133,7.229c-0.091,0.128-0.169,0.252-0.34,0.269c-2.038-0.006-4.075-0.012-6.112-0.017
		c0.04-0.052,0.081-0.105,0.121-0.157c0.505,0.105,0.788-0.228,1.097-0.537c5.738-5.744,11.479-11.485,17.224-17.222
		C26.224,21.572,26.395,21.251,26.781,21.246z"/>
	<path fill="#81CEB4" d="M34.113,10.864c-0.582,1.211-1.502,2.195-2.226,3.312c-0.89,1.373-1.883,2.68-2.831,4.015
		c-0.047,0.05-0.095,0.1-0.142,0.15c0,0-0.002,0.003-0.002,0.003c-0.05,0.051-0.1,0.102-0.15,0.153c0,0,0,0,0,0
		c-0.384,0.011-0.556,0.331-0.782,0.556C21.891,25.133,15.808,31.22,9.718,37.3c-0.24,0.24-0.418,0.602-0.85,0.566
		c1.161-1.674,2.323-3.348,3.483-5.023c0.099-0.144,0.181-0.299,0.27-0.45c0.58-0.769,1.16-1.539,1.74-2.308
		c0.429,0.029,0.611-0.328,0.852-0.569c6.041-6.032,12.075-12.07,18.115-18.102C33.554,11.188,33.727,10.868,34.113,10.864z"/>
	<path fill="#1C272B" d="M20.844,52.392c-0.228,0.239-0.523,0.136-0.789,0.139c-1.791,0.019-3.583,0.024-5.374,0.034
		c-0.148-0.161-0.296-0.323-0.444-0.484c-0.146-0.203-0.292-0.407-0.438-0.61c-0.244-0.448-0.528-0.868-0.879-1.24
		c-0.101-0.26-0.257-0.48-0.467-0.664c-0.298-0.424-0.597-0.847-0.895-1.271c-0.05-0.067-0.1-0.134-0.15-0.202
		c-0.263-0.494-0.59-0.942-0.958-1.362c-0.099-0.249-0.245-0.464-0.453-0.636c-0.063-0.142-0.126-0.284-0.19-0.426
		c2.095,0.011,4.189,0.023,6.284,0.034c0.552,1.079,1.326,2.006,2.047,2.969C19.057,49.901,19.832,51.233,20.844,52.392z"/>
	<path fill="#527F71" d="M16.091,45.705c-2.095-0.011-4.189-0.023-6.284-0.034c-0.21-0.254-0.42-0.508-0.63-0.762
		c-0.12-0.16-0.241-0.321-0.361-0.481c-0.261-0.495-0.587-0.944-0.96-1.36c-0.101-0.152-0.203-0.304-0.304-0.456
		c-0.063-0.194-0.126-0.388-0.188-0.582c0.212-0.268,0.512-0.171,0.779-0.173c1.191-0.01,2.383,0,3.574-0.009
		c0.242-0.002,0.514,0.092,0.711-0.147c0.358-0.002,0.715-0.003,1.073-0.005c0.688,1.409,1.601,2.666,2.617,3.853
		C16.108,45.6,16.099,45.653,16.091,45.705z M8.047,42.485c-0.009,0.024-0.018,0.049-0.027,0.073c1.248,0,2.497,0,3.745,0
		c0-0.024-0.001-0.049-0.001-0.073C10.525,42.485,9.286,42.485,8.047,42.485z"/>
	<path fill="#7EC7AE" d="M34.113,10.864c-0.386,0.005-0.559,0.325-0.785,0.55c-6.04,6.032-12.074,12.07-18.115,18.102
		c-0.241,0.241-0.423,0.598-0.851,0.569c0.018-0.097,0.036-0.194,0.054-0.291c0.596-0.768,1.192-1.537,1.788-2.305
		c0.428,0.026,0.607-0.334,0.847-0.574C23.139,20.836,29.221,14.75,35.309,8.67c0.225-0.225,0.397-0.547,0.782-0.553
		c-0.47,0.874-1.056,1.669-1.673,2.442c-0.053,0.055-0.106,0.11-0.159,0.165C34.211,10.771,34.162,10.817,34.113,10.864z"/>
	<path fill="#7EC7AE" d="M8.868,37.866c0.432,0.036,0.61-0.326,0.85-0.566c6.09-6.08,12.173-12.167,18.262-18.248
		c0.226-0.225,0.398-0.545,0.782-0.556c-0.472,0.873-1.053,1.672-1.673,2.443c-0.053,0.052-0.105,0.103-0.158,0.155
		c0,0,0.002-0.002,0.002-0.002c-0.052,0.052-0.104,0.103-0.156,0.155c0,0,0.004-0.001,0.004-0.001
		c-0.386,0.005-0.557,0.326-0.783,0.551c-5.745,5.737-11.486,11.478-17.224,17.222c-0.309,0.309-0.592,0.642-1.097,0.537
		C7.995,38.937,8.41,38.387,8.868,37.866z"/>
	<path fill="#7EC7AE" d="M21.698,19.703c0.016-0.097,0.032-0.193,0.049-0.29c0.723-0.67,1.108-1.603,1.794-2.302
		c0.395,0.02,0.567-0.307,0.792-0.531C29.389,11.533,34.44,6.48,39.492,1.428c0.144-0.144,0.288-0.287,0.433-0.43
		c0.174-0.172,0.424-0.325,0.601-0.142c0.235,0.244-0.098,0.39-0.235,0.527c-5.981,5.992-11.969,11.978-17.956,17.964
		C22.157,19.525,21.998,19.742,21.698,19.703z"/>
	<path fill="#5B8D81" d="M13.499,41.694c-0.358,0.002-0.715,0.003-1.073,0.005c-1.723-0.001-3.445-0.002-5.168-0.003
		c-0.007-0.101-0.015-0.203-0.022-0.304c1.768,0,3.536,0,5.304,0c0-0.05-0.001-0.099-0.001-0.149c-1.77,0-3.54,0-5.31,0
		c0.002-0.052,0.005-0.104,0.007-0.156c1.696,0,3.393,0.004,5.089-0.002c0.241-0.001,0.514,0.089,0.709-0.15
		c0.205-0.011,0.306-0.115,0.288-0.324c0.007-0.043,0.006-0.086-0.003-0.129C13.675,40.842,13.422,41.293,13.499,41.694z"/>
	<path fill="#7EC7AE" d="M7.375,40.16c0.003-0.098,0.005-0.197,0.008-0.295c0.057-0.05,0.115-0.101,0.173-0.151
		c2.037,0.006,4.075,0.011,6.112,0.017c0.006,0.444-0.292,0.443-0.617,0.441C11.159,40.163,9.267,40.163,7.375,40.16z"/>
	<path fill="#68A490" d="M13.322,40.611c0.017,0.209-0.084,0.313-0.288,0.324c-1.931,0-3.862,0-5.794,0
		c-0.02-0.05-0.041-0.1-0.061-0.15c0.024-0.051,0.047-0.103,0.071-0.154C9.274,40.624,11.298,40.618,13.322,40.611z"/>
	<path fill="#69A591" d="M7.24,40.935c1.931,0,3.862,0,5.794,0c-0.196,0.239-0.468,0.149-0.709,0.15
		c-1.696,0.007-3.393,0.003-5.089,0.002C7.237,41.037,7.239,40.986,7.24,40.935z"/>
	<path fill="#68A490" d="M7.229,41.243c1.77,0,3.54,0,5.31,0c0,0.05,0.001,0.099,0.001,0.149c-1.768,0-3.536,0-5.304,0
		C7.234,41.343,7.231,41.293,7.229,41.243z"/>
	<path fill="#69A591" d="M7.259,41.696c1.723,0.001,3.445,0.002,5.168,0.003c-0.197,0.239-0.469,0.146-0.711,0.147
		c-1.191,0.009-2.383-0.001-3.574,0.009c-0.266,0.002-0.567-0.095-0.779,0.173C7.235,41.947,7.242,41.823,7.259,41.696z"/>
	<path fill="#EAEBEA" d="M26.044,54.364c-0.309-0.367-0.633-0.725-0.821-1.176c0.199-0.229,0.384-0.47,0.598-0.684
		c5.419-5.424,10.841-10.843,16.259-16.269c0.226-0.227,0.541-0.399,0.576-0.774c0.196-0.214,0.391-0.428,0.587-0.642
		c0.363,0.02,0.527-0.275,0.736-0.483c1.874-1.866,3.741-3.738,5.614-5.605c0.21-0.209,0.382-0.496,0.747-0.458
		c-1.786,2.635-3.612,5.242-5.527,7.786c-0.395-0.018-0.565,0.31-0.79,0.534c-5.737,5.729-11.469,11.464-17.206,17.193
		C26.591,54.013,26.422,54.334,26.044,54.364z"/>
	<path fill="#5B8D81" d="M57.604,25.376c-0.241,0.421-0.438,0.836-0.698,1.205c-2.212,3.145-4.434,6.283-6.655,9.422
		c-1.665,2.354-3.336,4.705-4.999,7.061c-1.007,1.426-1.996,2.864-3.007,4.287c-0.518,0.728-0.572,0.677-1.159-0.045
		c-0.502-0.618-0.457-1.067,0.007-1.701c1.971-2.694,3.886-5.431,5.819-8.153c3.09-4.352,6.184-8.701,9.26-13.062
		c0.299-0.424,0.467-0.477,0.738-0.003C57.108,24.733,57.368,25.044,57.604,25.376z"/>
	<path fill="#5B8D81" d="M59.397,28.024c-0.361,0.524-0.728,1.069-1.108,1.605c-2.299,3.241-4.608,6.474-6.901,9.719
		c-2.483,3.513-4.951,7.038-7.429,10.554c-0.491,0.696-0.479,0.623-1.036,0.024c-0.7-0.752-0.35-1.305,0.107-1.947
		c3.989-5.61,7.968-11.227,11.949-16.842c1.01-1.425,2.015-2.854,3.026-4.278c0.092-0.13,0.1-0.369,0.356-0.322
		C58.46,26.556,59.408,27.893,59.397,28.024z"/>
	<path fill="#EAEBEA" d="M27.371,56.21c-0.382-0.409-0.696-0.866-0.948-1.365c0.297-0.117,0.477-0.375,0.69-0.588
		c5.031-5.027,10.059-10.057,15.091-15.082c0.225-0.225,0.4-0.548,0.796-0.521c-1.83,2.687-3.686,5.354-5.643,7.951
		c-0.404-0.052-0.574,0.283-0.797,0.505c-2.732,2.722-5.456,5.452-8.186,8.176C28.052,55.607,27.706,55.903,27.371,56.21z"/>
	<path fill="#EAEBEA" d="M26.564,50.695c1.795-2.63,3.607-5.246,5.526-7.787c0.367,0.031,0.531-0.266,0.739-0.474
		c2.504-2.497,5.001-5.001,7.507-7.496c0.358-0.357,0.668-0.769,1.114-1.033c0.39,0.406,0.703,0.864,0.94,1.373
		c-0.301,0.111-0.478,0.372-0.691,0.585c-4.761,4.756-9.518,9.516-14.281,14.27C27.177,50.374,26.993,50.729,26.564,50.695z"/>
	<path fill="#BA4D36" d="M38.04,57.892c-0.027,1.006-0.217,1.961-0.825,2.799c-0.939,1.294-2.401,1.331-3.385,0.077
		c-1.07-1.363-1.127-3.763-0.11-5.152c0.49-0.67,1.127-1.091,1.994-1.074c0.102,0.625,0.147,1.268,0.533,1.81
		c0.082,0.257,0.199,0.49,0.435,0.642C36.978,57.532,37.554,57.643,38.04,57.892z"/>
	<path fill="#EAEBEA" d="M33.902,40.316c1.82-2.696,3.709-5.344,5.665-7.943c0.367,0.036,0.531-0.262,0.739-0.469
		c1.925-1.916,3.842-3.84,5.766-5.757c0.209-0.209,0.379-0.496,0.741-0.47c-0.356,0.721-1.302,1.355-0.337,2.272
		c-0.455,0.513-0.835,1.109-1.511,1.379c-0.253-0.47-0.46-0.367-0.729,0.014c-0.974,1.38-1.971,2.743-2.959,4.113
		c-0.352,0.007-0.516,0.295-0.725,0.503c-1.972,1.964-3.937,3.935-5.908,5.899C34.435,40.065,34.265,40.351,33.902,40.316z"/>
	<path fill="#EAEBEA" d="M51.78,17.584c0.273,0.394,0.545,0.788,0.818,1.182c-0.669,0.866-1.531,1.546-2.258,2.355
		c-0.383,0.427-0.927,0.718-1.127,1.304c-0.198,0.218-0.396,0.437-0.594,0.655c-0.359-0.009-0.523,0.283-0.732,0.491
		c-1.924,1.916-3.841,3.838-5.763,5.755c-0.209,0.209-0.381,0.496-0.746,0.456c1.651-2.36,3.302-4.72,4.956-7.078
		c0.173-0.247,0.368-0.478,0.553-0.716c0.369,0.047,0.532-0.25,0.74-0.456c1.168-1.157,2.325-2.325,3.492-3.483
		C51.309,17.859,51.458,17.595,51.78,17.584z"/>
	<path fill="#EAEBEA" d="M54.249,21.093c0.609,0.51,0.636,0.998,0.105,1.637c-0.785,0.943-1.474,1.965-2.205,2.953
		c-0.368-0.035-0.532,0.263-0.74,0.47c-1.874,1.866-3.742,3.739-5.615,5.606c-0.21,0.209-0.38,0.497-0.744,0.466
		c0.464-0.761,1.219-1.484,0.319-2.424c0.612-0.294,0.855-1.055,1.559-1.233c0.252,0.347,0.414,0.275,0.658-0.056
		c0.996-1.356,1.869-2.803,2.977-4.077c0.366,0.028,0.527-0.27,0.739-0.475C52.288,23.01,53.267,22.05,54.249,21.093z"/>
	<path fill="#E1E1E1" d="M43,38.654c-0.396-0.027-0.571,0.297-0.796,0.521c-5.033,5.025-10.06,10.056-15.091,15.082
		c-0.213,0.213-0.393,0.471-0.69,0.588c-0.159-0.135-0.318-0.27-0.379-0.481c0.378-0.03,0.546-0.351,0.772-0.577
		c5.737-5.729,11.469-11.464,17.206-17.193c0.225-0.224,0.395-0.552,0.79-0.534C44.275,36.971,43.667,37.833,43,38.654z"/>
	<path fill="#EAEBEA" d="M35.683,49.036c-1.959,2.775-3.917,5.55-5.876,8.325c-0.26,0.368-0.527,0.731-0.847,1.175
		c-0.452-0.667-0.861-1.271-1.27-1.875c0.209-0.183,0.428-0.355,0.624-0.55c2.191-2.186,4.377-4.378,6.571-6.562
		C35.11,49.324,35.286,49.001,35.683,49.036z"/>
	<path fill="#E1E1E1" d="M26.564,50.695c0.43,0.034,0.613-0.321,0.854-0.562c4.763-4.754,9.52-9.514,14.281-14.27
		c0.213-0.213,0.39-0.473,0.691-0.585c0.088,0.061,0.177,0.123,0.266,0.184c-0.035,0.374-0.35,0.547-0.576,0.773
		c-5.417,5.425-10.84,10.845-16.259,16.269c-0.213,0.214-0.399,0.455-0.598,0.684c-0.252-0.222-0.163-0.447-0.001-0.667
		C25.668,51.911,26.116,51.303,26.564,50.695z"/>
	<path fill="#EAEBEA" d="M36.248,56.352c-0.387-0.542-0.432-1.184-0.533-1.81c0.027-0.007,0.054-0.014,0.081-0.019
		c1.358-0.927,2.387-2.196,3.503-3.374c0.586,0.286,0.884,0.789,1.052,1.391c-1.124,1.102-2.246,2.207-3.376,3.303
		C36.762,56.05,36.602,56.345,36.248,56.352z"/>
	<path fill="#EAEBEA" d="M52.898,19.219c0.42,0.479,0.822,0.971,1.094,1.554c-0.352-0.002-0.523,0.276-0.74,0.48
		c-0.957,0.901-1.805,1.914-2.831,2.744c-0.392-0.404-0.698-0.866-0.937-1.374C50.71,21.578,51.839,20.434,52.898,19.219z"/>
	<path fill="#EAEBEA" d="M38.04,57.892c-0.486-0.249-1.063-0.36-1.358-0.898c0.769-0.969,1.705-1.778,2.575-2.65
		c0.419-0.42,0.749-0.953,1.337-1.185c0.184,0.818,0.208,1.63-0.087,2.43c-0.951,0.552-1.651,1.362-2.287,2.236
		C38.16,57.847,38.1,57.87,38.04,57.892z"/>
	<path fill="#E1E1E1" d="M35.683,49.036c-0.397-0.035-0.573,0.288-0.799,0.512c-2.193,2.184-4.379,4.376-6.571,6.562
		c-0.196,0.195-0.415,0.367-0.624,0.55c-0.106-0.15-0.212-0.3-0.319-0.45c0.335-0.307,0.681-0.603,1.003-0.924
		c2.73-2.724,5.454-5.454,8.186-8.176c0.223-0.222,0.393-0.557,0.797-0.505C36.861,47.458,36.301,48.267,35.683,49.036z"/>
	<path fill="#E1E1E1" d="M33.902,40.316c0.363,0.036,0.534-0.251,0.742-0.459c1.971-1.965,3.936-3.936,5.908-5.899
		c0.209-0.208,0.373-0.496,0.725-0.503c0.058,0.15,0.115,0.3,0.173,0.45c-0.446,0.264-0.756,0.676-1.114,1.033
		c-2.506,2.495-5.002,4.999-7.507,7.496c-0.208,0.208-0.372,0.505-0.739,0.474C32.633,42.001,33.24,41.139,33.902,40.316z"/>
	<path fill="#E1E1E1" d="M41.377,29.781c0.365,0.039,0.537-0.247,0.746-0.456c1.923-1.917,3.84-3.839,5.763-5.755
		c0.209-0.208,0.373-0.5,0.732-0.491c-0.523,0.92-1.138,1.777-1.804,2.597c-0.363-0.026-0.532,0.261-0.741,0.47
		c-1.924,1.917-3.842,3.841-5.766,5.757c-0.208,0.207-0.372,0.504-0.739,0.469C40.09,31.453,40.712,30.602,41.377,29.781z"/>
	<path fill="#E1E1E1" d="M45.049,32.226c0.364,0.031,0.535-0.257,0.744-0.466c1.874-1.867,3.741-3.74,5.615-5.606
		c0.208-0.207,0.372-0.505,0.74-0.47c-0.525,0.918-1.146,1.769-1.81,2.591c-0.365-0.038-0.537,0.249-0.747,0.458
		c-1.873,1.867-3.74,3.74-5.614,5.605c-0.209,0.208-0.373,0.503-0.736,0.483C43.747,33.888,44.374,33.04,45.049,32.226z"/>
	<path fill="#E1E1E1" d="M51.78,17.584c-0.321,0.011-0.471,0.275-0.663,0.465c-1.167,1.158-2.325,2.325-3.492,3.483
		c-0.207,0.206-0.371,0.503-0.74,0.456c0.51-0.935,1.183-1.754,1.835-2.589c0.36,0.036,0.516-0.259,0.731-0.454
		c0.664-0.6,1.207-1.329,1.951-1.844C51.571,17.228,51.713,17.377,51.78,17.584z"/>
	<path fill="#EAEBEA" d="M35.782,53.758c0.095-1.259,0.582-2.28,1.763-2.865c0.366-0.181,0.754-0.285,1.151-0.064
		c-0.041,0.457-0.418,0.68-0.707,0.936C37.247,52.422,36.727,53.326,35.782,53.758z"/>
	<path fill="#E1E1E1" d="M40.594,53.159c-0.589,0.232-0.919,0.765-1.337,1.185c-0.869,0.872-1.805,1.681-2.575,2.65
		c-0.236-0.152-0.353-0.385-0.435-0.642c0.355-0.007,0.515-0.302,0.727-0.508c1.129-1.097,2.251-2.201,3.376-3.303
		C40.537,52.705,40.547,52.94,40.594,53.159z"/>
	<path fill="#E1E1E1" d="M52.898,19.219c-1.059,1.215-2.188,2.358-3.415,3.405c-0.09-0.067-0.181-0.133-0.271-0.2
		c0.199-0.586,0.743-0.877,1.127-1.303c0.727-0.809,1.589-1.489,2.258-2.355C52.759,18.876,52.859,19.028,52.898,19.219z"/>
	<path fill="#E1E1E1" d="M50.42,23.998c1.026-0.83,1.874-1.843,2.831-2.744c0.217-0.204,0.389-0.482,0.74-0.48
		c0.086,0.106,0.171,0.213,0.257,0.319c-0.982,0.957-1.961,1.917-2.947,2.868c-0.212,0.205-0.373,0.503-0.739,0.475
		C50.516,24.29,50.468,24.144,50.42,23.998z"/>
	<path fill="#E1E1E1" d="M35.782,53.758c0.944-0.432,1.465-1.337,2.208-1.994c0.289-0.256,0.666-0.479,0.707-0.936
		c0.241,0.031,0.467,0.09,0.602,0.321c-1.116,1.178-2.145,2.447-3.503,3.374C35.791,54.269,35.787,54.014,35.782,53.758z"/>
	<path fill="#EAEBEA" d="M51.402,17.101c-0.744,0.515-1.287,1.244-1.951,1.844c-0.215,0.195-0.372,0.49-0.731,0.454
		c0.541-0.791,1.08-1.584,1.624-2.373C50.913,16.201,50.915,16.203,51.402,17.101z"/>
	<path fill="#E1E1E1" d="M38.22,57.825c0.637-0.874,1.337-1.683,2.287-2.236C40.38,56.712,39.259,57.958,38.22,57.825z"/>
	<path fill="#7EC7AE" d="M13.322,40.611c-2.024,0.007-4.048,0.014-6.072,0.02c0.002-0.052,0.003-0.104,0.005-0.156
		c2.021,0.002,4.043,0.004,6.064,0.007C13.328,40.525,13.329,40.568,13.322,40.611z"/>
	<path fill="#7EC7AE" d="M36.09,8.117c0.05-0.051,0.1-0.102,0.15-0.154C36.19,8.014,36.14,8.065,36.09,8.117z"/>
	<path fill="#81CEB4" d="M34.259,10.724c0.053-0.055,0.106-0.11,0.159-0.165C34.366,10.614,34.312,10.669,34.259,10.724z"/>
	<path fill="#7EC7AE" d="M28.761,18.496c0.05-0.051,0.1-0.102,0.15-0.153C28.861,18.394,28.811,18.445,28.761,18.496z"/>
	<path fill="#7EC7AE" d="M28.914,18.341c0.047-0.05,0.095-0.1,0.142-0.15C29.009,18.24,28.961,18.29,28.914,18.341z"/>
	<path fill="#81CEB4" d="M26.931,21.094c0.052-0.052,0.105-0.103,0.158-0.155C27.036,20.991,26.983,21.043,26.931,21.094z"/>
	<path fill="#81CEB4" d="M26.777,21.247c0.052-0.052,0.104-0.103,0.156-0.155C26.881,21.144,26.829,21.195,26.777,21.247z"/>
	<path fill="#7EC7AE" d="M36.242,7.961c0.048-0.051,0.097-0.101,0.145-0.152C36.339,7.86,36.29,7.911,36.242,7.961z"/>
	<path fill="#68A490" d="M8.047,42.485c1.239,0,2.478,0,3.717,0c0,0.024,0.001,0.049,0.001,0.073c-1.248,0-2.497,0-3.745,0
		C8.029,42.534,8.038,42.51,8.047,42.485z"/>
	<path fill="#9BA2AA" d="M45.049,32.226c-0.675,0.814-1.302,1.661-1.807,2.594c-0.196,0.214-0.392,0.428-0.587,0.641
		c-0.089-0.061-0.177-0.122-0.266-0.184c-0.237-0.51-0.55-0.968-0.94-1.373c-0.057-0.15-0.115-0.3-0.173-0.45
		c0.988-1.37,1.985-2.733,2.959-4.113c0.269-0.381,0.476-0.484,0.729-0.014c0.07,0.213,0.234,0.345,0.403,0.474
		C46.268,30.743,45.514,31.465,45.049,32.226z"/>
	<path fill="#9BA2AA" d="M50.42,23.998c0.048,0.146,0.095,0.292,0.142,0.438c-1.109,1.274-1.981,2.721-2.977,4.077
		c-0.244,0.332-0.406,0.403-0.658,0.056c-0.15-0.207-0.301-0.414-0.451-0.621c-0.965-0.917-0.019-1.551,0.337-2.272
		c0.667-0.82,1.281-1.677,1.804-2.597c0.198-0.218,0.396-0.436,0.595-0.655c0.091,0.066,0.181,0.133,0.271,0.2
		C49.722,23.133,50.028,23.595,50.42,23.998z"/>
	<path fill="#E1E1E1" d="M46.477,27.949c0.15,0.207,0.301,0.414,0.451,0.621c-0.704,0.177-0.947,0.939-1.559,1.233
		c-0.169-0.129-0.333-0.261-0.403-0.474C45.642,29.058,46.022,28.462,46.477,27.949z"/>
</g>
</svg>
